<svg width="32" height="32" xmlns="http://www.w3.org/2000/svg" data-name="katman 1">

 <g>
  <title>Layer 1</title>
  <g stroke="null" id="svg_30">
   <path stroke="null" id="svg_31" stroke-width="0px" d="m11.4155,0.06572c-0.31328,0.06408 -1.03833,0.27173 -1.35669,0.39157c-1.19148,0.4509 -2.10399,1.07385 -3.08831,2.12397l-0.30121,0.318l-0.5503,-0.05102c-1.56639,-0.14239 -1.60325,-0.14714 -2.35118,-0.53396c-0.76445,-0.39157 -1.0682,-0.48412 -1.66743,-0.51141c-0.28151,-0.01424 -0.57509,-0.00949 -0.65388,0.00949c-0.13789,0.02729 -0.15314,0.04628 -0.31074,0.34055c-0.1309,0.25393 -0.19,0.41411 -0.30121,0.83891c-0.31836,1.22573 -0.42194,2.20703 -0.4588,4.38084c-0.01716,1.03232 -0.03177,1.39541 -0.07181,1.74071c-0.13789,1.18895 -0.11819,2.80506 0.04957,4.28354c0.05656,0.48887 0.32345,2.02192 0.43402,2.48706l0.07181,0.29902l-0.04448,0.50667c-0.06164,0.67279 -0.08642,3.21087 -0.04702,4.32507c0.0788,2.17855 0.36729,4.55526 0.7079,5.85456c0.20716,0.79263 0.40478,1.12369 0.72505,1.21624c0.73522,0.21596 2.90593,0 3.27386,-0.32749c0.42448,-0.37258 0.8585,-1.82851 0.93221,-3.12781c0.01017,-0.16612 0.02478,-0.32749 0.03431,-0.35953c0.02987,-0.08781 1.07773,0.48412 1.14191,0.62651c0.01716,0.04153 0.06164,0.29427 0.09595,0.56244c0.17284,1.28981 0.58462,2.86558 1.0091,3.82789c0.59923,1.37287 1.32238,2.26161 2.17071,2.67573c0.64372,0.318 1.75131,0.2124 2.78774,-0.26223c0.45117,-0.20765 0.96208,-0.52091 1.19148,-0.72737c0.48866,-0.44734 1.15208,-1.70392 1.4876,-2.8288c0.06418,-0.2124 0.13599,-0.40106 0.16013,-0.41411c0.02478,-0.01899 0.20207,-0.01899 0.39716,0c1.48506,0.13408 3.38951,0.2302 6.31006,0.318l1.73924,0.05577l0.13599,0.17087c0.30311,0.38208 0.66087,0.64906 1.12221,0.83416c0.21733,0.09255 0.32345,0.10086 0.87566,0.10086c0.68566,0 1.02372,-0.05933 1.4679,-0.26698c0.38699,-0.17917 0.86612,-0.47938 0.95445,-0.59922c0.04448,-0.05933 0.12836,-0.15663 0.18746,-0.2124c0.3209,-0.318 0.90552,-1.2993 1.19656,-2.00887c0.66087,-1.61256 0.99893,-3.79111 0.90806,-5.84032c-0.05401,-1.21624 -0.19,-2.1655 -0.51535,-3.57041c-0.10104,-0.44259 -0.23448,-1.05487 -0.29358,-1.35863c-0.13789,-0.70483 -0.27642,-1.22573 -0.4588,-1.74545c-0.72061,-2.05396 -1.81295,-3.26546 -3.42129,-3.79111c-0.2294,-0.07357 -0.41177,-0.08306 -1.5791,-0.08306c-0.72505,0 -1.68014,0.01899 -2.12369,0.04153c-0.44164,0.02254 -0.87566,0.02729 -0.96462,0.00949l-0.16522,-0.03204l-0.43656,-1.25302c-1.25057,-3.57041 -1.49522,-4.21946 -1.89937,-5.00735c-0.25164,-0.48887 -0.35268,-0.60753 -0.76255,-0.91248c-1.34462,-0.99554 -3.96651,-2.10024 -5.76039,-2.42773c-0.36539,-0.06882 -1.77864,-0.12934 -1.98579,-0.08781l0.00127,0.00119z" class="cls-1"/>
   <path stroke="null" id="svg_32" fill="#fff" stroke-width="0px" d="m9.81416,8.53193c0.05211,0.03678 1.79325,0.03678 2.44713,-0.00475l0.5179,-0.02729l-0.14552,-0.17561c-0.1703,-0.20765 -0.34315,-0.62177 -0.40478,-0.96706c-0.09595,-0.54345 -0.0394,-1.09165 0.16522,-1.56628l0.11819,-0.27173l-0.10612,0.00475c-0.24401,0.01424 -0.99385,0.27647 -1.36178,0.47463c-0.50328,0.27647 -1.11522,0.74636 -1.18893,0.91248c-0.08134,0.18392 -0.11819,1.56628 -0.04194,1.62086l0.00064,0z" class="cls-4"/>
   <path stroke="null" id="svg_33" fill="#fff" stroke-width="0px" d="m21.83314,9.6924c0.01207,-0.02729 -0.06672,-0.27647 -0.23194,-0.72262l-0.1309,-0.34529l-0.47596,-0.28596c-0.91505,-0.54345 -2.06014,-1.16996 -2.62252,-1.43694c-0.31074,-0.14239 -0.6094,-0.28122 -0.66341,-0.29427c-0.09405,-0.03204 -0.09595,-0.03204 -0.0788,0.0973c0.04194,0.35953 0.04448,0.78789 0.00508,1.01334c-0.08388,0.46988 -0.28151,0.8662 -0.52806,1.05487l-0.13789,0.10086l0.08642,0.02729c0.04702,0.01424 0.31074,0.05577 0.5897,0.0973c0.69074,0.10086 2.83921,0.46039 3.57443,0.59922c0.33044,0.06408 0.60686,0.10561 0.61448,0.0973l-0.00064,-0.00237z" class="cls-4"/>
   <path stroke="null" id="svg_34" fill="#fff" stroke-width="0px" d="m13.51695,8.4026l-0.15314,0.12934l0.18492,0.03678c0.19953,0.03204 1.63566,0.15663 2.41727,0.2029l0.48104,0.03204l-0.10104,-0.14239c-0.14806,-0.2029 -0.30311,-0.51141 -0.35776,-0.71432c-0.11375,-0.40581 -0.08134,-1.13793 0.06418,-1.5295c0.09405,-0.25393 0.08388,-0.29071 -0.08134,-0.29427c-0.04448,-0.00475 -0.35522,-0.10561 -0.69074,-0.2302c-0.33552,-0.12459 -0.71552,-0.25393 -0.84388,-0.28122c-0.12836,-0.03204 -0.34759,-0.06882 -0.48358,-0.08781l-0.2491,-0.02729l0.10358,0.21596c0.25418,0.52921 0.31836,1.2993 0.16013,1.88428c-0.08896,0.318 -0.27896,0.65855 -0.45117,0.80568l0.00064,0z" class="cls-4"/>
   <path stroke="null" id="svg_35" fill="#f7ee1d" stroke-width="0px" d="m21.86746,10.19907c-0.13345,-0.16612 -0.21478,-0.19341 -0.29358,-0.0973c-0.0394,0.05102 -0.13345,0.09255 -0.23448,0.10561c-0.16013,0.01899 -0.17539,0.01424 -0.27896,-0.12459c-0.12836,-0.17087 -0.16013,-0.17917 -0.16013,-0.02729s-0.07181,0.17917 -0.37238,0.14239c-0.19953,-0.02729 -0.25672,-0.01899 -0.3209,0.04153c-0.08896,0.08781 -0.1112,0.06882 -0.07181,-0.06882c0.01716,-0.05933 0.0197,-0.11984 0.00763,-0.14239c-0.0394,-0.07357 -0.52552,-0.318 -0.77208,-0.38682c-0.28151,-0.08306 -0.2885,-0.08306 -0.31074,-0.01899c-0.02987,0.09255 0.03177,0.14239 0.26371,0.20765c0.33044,0.09255 0.36729,0.11035 0.35268,0.17561c-0.00763,0.03204 0.00508,0.08781 0.02732,0.11984c0.20462,0.318 -0.53315,0.41056 -1.28298,0.16612c-0.10866,-0.03678 -0.29104,-0.07831 -0.40733,-0.09255c-0.20716,-0.02729 -0.20716,-0.02254 0.12328,0.08781c0.18238,0.06408 0.56746,0.2029 0.85087,0.30851c0.48612,0.18392 0.54268,0.19816 0.92522,0.19341c0.22432,0 0.64626,-0.03678 0.9373,-0.08306c0.38254,-0.05933 0.92268,-0.09255 1.94131,-0.1151c0.77716,-0.01899 1.41833,-0.04153 1.42596,-0.05933c0.01017,-0.01424 -0.08134,-0.06882 -0.20207,-0.12459c-0.21733,-0.0973 -0.5306,-0.14714 -1.39863,-0.23494c-0.45117,-0.04628 -0.46897,-0.04153 -0.52044,0.04628c-0.06926,0.11984 -0.11565,0.1151 -0.2294,-0.01899l0.00064,0z" class="cls-2"/>
   <path stroke="null" id="svg_36" fill="#ee3f21" stroke-width="0px" d="m19.03524,10.16703c0.03431,0.07357 0.07625,0.0973 0.16522,0.0973c0.06418,0 0.12582,-0.02254 0.13345,-0.04628c0.01017,-0.02729 -0.07371,-0.12934 -0.19508,-0.23494c-0.12836,-0.11035 -0.26371,-0.19341 -0.3406,-0.20765l-0.1309,-0.02254l0.16013,0.15663c0.08896,0.08781 0.18238,0.2029 0.20716,0.25749l0.00064,0z" class="cls-5"/>
   <path stroke="null" id="svg_37" fill="#ee3f21" stroke-width="0px" d="m17.09392,9.83123c0.01017,-0.01424 0,-0.05933 -0.0197,-0.0973c-0.0394,-0.07357 -0.23448,-0.15188 -0.21224,-0.08306c0.02224,0.06882 0.21224,0.21596 0.23194,0.17917l0,0.00119z" class="cls-5"/>
   <path stroke="null" id="svg_38" fill="#f7ee1d" stroke-width="0px" d="m18.88019,10.20382c0.0197,-0.00949 -0.05401,-0.10086 -0.16268,-0.19341c-0.15569,-0.13764 -0.23702,-0.17917 -0.38254,-0.19816c-0.16776,-0.01899 -0.18238,-0.01424 -0.15314,0.05102c0.06926,0.15188 0.59923,0.41056 0.69836,0.34055z" class="cls-2"/>
   <path stroke="null" id="svg_39" fill="#3b80a6" stroke-width="0px" d="m16.20111,7.75829c0.04194,-0.05577 0.04448,-0.08306 0.01716,-0.18392c-0.02224,-0.09255 -0.04702,-0.11984 -0.10358,-0.11984c-0.06164,0 -0.07371,0.01899 -0.07371,0.11035c0,0.25393 0.06418,0.32749 0.16013,0.19341z" class="cls-3"/>
   <path stroke="null" id="svg_40" fill="#f7ee1d" stroke-width="0px" d="m17.58513,10.75202c0.04448,-0.06408 0.04194,-0.07831 -0.09595,-0.3358l-0.14298,-0.27173l0.10104,-0.15188c0.14806,-0.2207 0.1309,-0.32749 -0.06926,-0.42835c-0.08388,-0.04153 -0.25672,-0.11035 -0.38,-0.14714c-0.32535,-0.10561 -1.47743,-0.08306 -1.53907,0.03204c-0.00763,0.01424 0.35014,0.03204 0.79686,0.04153c0.82863,0.01899 0.92014,0.03678 0.95445,0.20765c0.01716,0.07831 -0.04448,0.318 -0.09151,0.35004c-0.0197,0.01424 -0.08388,-0.01899 -0.14298,-0.06882c-0.0591,-0.05102 -0.1703,-0.10086 -0.24401,-0.11035c-0.12836,-0.02254 -0.13345,-0.01899 -0.08642,0.05102c0.06672,0.10086 0.77716,0.83416 0.84134,0.87095c0.02732,0.01424 0.07181,0 0.0985,-0.03678l0,-0.00237z" class="cls-2"/>
   <path stroke="null" id="svg_41" fill="#ee3f21" stroke-width="0px" d="m19.61795,4.07278c-0.8585,-0.82942 -3.60938,-1.94836 -6.01902,-2.45028c-0.5179,-0.10561 -2.19549,-0.13408 -2.50877,-0.03678c-0.28341,0.08306 -0.50328,0.20765 -0.6094,0.34529c-0.0985,0.12459 -0.22177,0.4509 -0.27388,0.73212c-0.0788,0.41411 -0.32345,2.89287 -0.35014,3.58346l-0.01462,0.3358l0.0591,-0.04628c0.03177,-0.02254 0.16013,-0.11984 0.28151,-0.2124c0.30311,-0.23969 0.88074,-0.59922 1.21372,-0.76059c0.48866,-0.23969 0.89027,-0.32749 1.58609,-0.35479c0.84388,-0.03204 1.28997,0.04628 2.19041,0.38208c0.23448,0.08781 0.43656,0.14714 0.44927,0.13408c0.02224,-0.02729 0.01207,-0.2207 -0.0394,-0.80568c-0.06418,-0.72262 0.0394,-0.53871 0.14044,0.25393c0.09405,0.72737 0.05656,0.64075 0.29358,0.68228c1.20609,0.2029 2.29399,0.67279 4.28995,1.85224c0.8979,0.52565 1.01419,0.58973 1.03134,0.55769c0.03177,-0.05577 -1.15716,-3.29393 -1.35669,-3.69381c-0.10612,-0.2124 -0.19953,-0.34055 -0.36284,-0.49718l-0.00064,-0.00119z" class="cls-5"/>
   <path stroke="null" id="svg_42" fill="#ee3f21" stroke-width="0px" d="m15.81857,11.04747c-0.11819,0 -0.1112,0.05933 0.01462,0.13764c0.09595,0.05933 0.12328,0.04153 0.10104,-0.06882c-0.01017,-0.04628 -0.04957,-0.06882 -0.11565,-0.06882z" class="cls-5"/>
   <path stroke="null" id="svg_43" fill="#3b80a6" stroke-width="0px" d="m16.21318,6.44119c0,0.08781 0.11565,0.30851 0.13789,0.26223c0.01017,-0.01424 0.00254,-0.09255 -0.01462,-0.16612c-0.05211,-0.23494 -0.12328,-0.29071 -0.12328,-0.0973l0,0.00119z" class="cls-3"/>
   <path stroke="null" id="svg_44" fill="#3b80a6" stroke-width="0px" d="m16.20365,7.13652c-0.02224,-0.06408 -0.15569,-0.06882 -0.17539,-0.00475c-0.02478,0.07357 0.01017,0.13764 0.06926,0.13764c0.07181,0 0.12582,-0.06882 0.10612,-0.13408l0,0.00119z" class="cls-3"/>
   <path stroke="null" id="svg_45" fill="#ee3f21" stroke-width="0px" d="m15.23649,9.59629l0.1112,0.17087l0.38953,-0.01899c0.46388,-0.01899 0.40923,-0.05577 1.16669,0.7689c0.27134,0.29427 0.50582,0.52921 0.52298,0.52091c0.02732,-0.01899 -0.21733,-0.29902 -0.87311,-1.01334c-0.09405,-0.0973 -0.16776,-0.19816 -0.16776,-0.21596c0,-0.05933 0.06672,-0.0973 0.16013,-0.0973c0.04702,0 0.09151,-0.02254 0.10104,-0.05102c0.01207,-0.03678 -0.16013,-0.04153 -0.62147,-0.01899l-0.63863,0.03204l-0.08388,-0.16137l-0.08388,-0.16612l0.09595,-0.04628c0.05401,-0.02729 0.23957,-0.06882 0.41432,-0.09255c0.17284,-0.02254 0.32345,-0.05577 0.33044,-0.06882c0.0197,-0.03678 -0.60178,-0.02254 -0.72251,0.01424c-0.12328,0.04153 -0.2097,0.12459 -0.2097,0.2124c0,0.03204 0.04957,0.13764 0.10866,0.2302l0,0.00119z" class="cls-5"/>
   <path stroke="null" id="svg_46" fill="#3b80a6" stroke-width="0px" d="m16.10452,6.65714c-0.03431,0.06882 -0.01017,0.2029 0.04702,0.25393c0.08134,0.06882 0.13599,-0.00949 0.08642,-0.12459c-0.04448,-0.0973 -0.11375,-0.16612 -0.13345,-0.12934z" class="cls-3"/>
   <path stroke="null" id="svg_47" fill="#3b80a6" stroke-width="0px" d="m16.17633,8.09883c0.04957,0.07357 0.1112,0.02729 0.1112,-0.09255c0,-0.10561 -0.07625,-0.12934 -0.12074,-0.02729c-0.02224,0.04628 -0.0197,0.07357 0.01017,0.11984l-0.00064,0z" class="cls-3"/>
   <path stroke="null" id="svg_48" fill="#3b80a6" stroke-width="0px" d="m12.53517,7.43554c0.02224,-0.05102 0.0197,-0.06882 -0.01207,-0.09255c-0.08896,-0.06408 -0.20462,0.00949 -0.17284,0.10561c0.02478,0.07357 0.1506,0.06408 0.18492,-0.01424l0,0.00119z" class="cls-3"/>
   <path stroke="null" id="svg_49" fill="#3b80a6" stroke-width="0px" d="m12.50086,7.86864c0.04448,0 0.16013,-0.19816 0.16013,-0.27647c0,-0.06882 -0.02732,-0.05577 -0.11565,0.04628c-0.08388,0.0973 -0.10866,0.2302 -0.04448,0.2302z" class="cls-3"/>
   <path stroke="null" id="svg_50" fill="#3b80a6" stroke-width="0px" d="m16.4178,6.20981l-0.08388,0l0.05211,0.13764c0.02987,0.07357 0.07371,0.13764 0.0985,0.13764c0.05401,0 0.08388,-0.12934 0.04702,-0.2124c-0.01462,-0.03678 -0.06672,-0.06408 -0.11375,-0.06408l0,0.00119z" class="cls-3"/>
   <path stroke="null" id="svg_51" fill="#ee3f21" stroke-width="0px" d="m24.76386,10.50758c0.02478,0.05933 0.11565,0.26223 0.20207,0.44259c0.08388,0.17917 0.15314,0.36902 0.15314,0.41886c0,0.15188 -0.18492,0.48412 -0.3406,0.61227c-0.27388,0.22545 -0.45371,0.27173 -1.23087,0.29427c-0.73014,0.02254 -1.25566,-0.01899 -1.88222,-0.15188c-1.03388,-0.21596 -2.10208,-0.59922 -3.09339,-1.10589c-0.21987,-0.11035 -0.41686,-0.2029 -0.4391,-0.2029c-0.02478,0 -0.08134,0.06408 -0.12836,0.13764c-0.11565,0.19341 -0.21733,0.26223 -0.43656,0.29902l-0.18492,0.03204l-0.38254,-0.43785c-0.2097,-0.23969 -0.50074,-0.55294 -0.64626,-0.70008l-0.26371,-0.26223l-0.36729,0.06408l-0.36729,0.06408l-0.12074,-0.17917c-0.1506,-0.22545 -0.30311,-0.50192 -0.30311,-0.5482c0,-0.02254 0.03431,-0.07831 0.07625,-0.12459s0.06672,-0.0973 0.05401,-0.11035c-0.01017,-0.01424 -0.3406,-0.04628 -0.73522,-0.07357c-0.39208,-0.02729 -0.78669,-0.05933 -0.87566,-0.07357l-0.16013,-0.02254l0.33298,0.31326c0.38509,0.35953 0.63418,0.636 1.14191,1.26252c0.68057,0.83891 0.6094,0.78314 1.99088,1.58052c0.29104,0.16612 1.04087,0.61702 1.66489,0.99554c0.62402,0.38208 1.22388,0.73212 1.33191,0.77839c0.27134,0.11984 0.59923,0.17561 1.41833,0.2302c1.82312,0.12459 2.12178,0.14714 2.66446,0.2124c0.31836,0.03678 0.94746,0.12934 1.39355,0.20765c0.56746,0.10086 1.01419,0.15188 1.47298,0.16612l0.65897,0.02254l0.29104,-0.28596c0.34505,-0.3358 0.69582,-0.76415 0.93031,-1.13793c0.21987,-0.34529 0.27388,-0.47938 0.25164,-0.63126c-0.0788,-0.58498 -1.07328,-1.57577 -2.0182,-2.00413c-0.60432,-0.27647 -1.08281,-0.37258 -1.81803,-0.37258l-0.43402,0l0.07625,0.08781c0.04194,0.04628 0.09595,0.13764 0.12328,0.2029l-0.00064,0zm-8.6784,0.67279c-0.01462,0.24443 -0.23194,0.29427 -0.40923,0.0973c-0.09595,-0.11035 -0.10612,-0.28122 -0.02224,-0.39157c0.1309,-0.17917 0.44672,0.03678 0.43147,0.29427zm3.9843,2.46452c-0.09151,-0.12934 -0.09595,-0.3358 -0.00763,-0.42361c0.1309,-0.12459 0.4194,0.05577 0.4194,0.26223c0,0.24918 -0.27134,0.35479 -0.41177,0.16137zm8.04676,-1.49271c0.13599,-0.10561 0.36539,0.00475 0.39462,0.18392c0.05656,0.34055 -0.40478,0.4509 -0.48612,0.1151c-0.02987,-0.12934 0,-0.23494 0.09151,-0.29902zm-1.81803,1.79648c0.12328,-0.2124 0.29612,-0.18867 0.44418,0.05933l0.05401,0.0973l-0.06672,0.12934c-0.05656,0.11035 -0.08388,0.12934 -0.20462,0.12934s-0.1506,-0.01899 -0.22177,-0.13764l-0.08642,-0.13764l0.08134,-0.13764l0,-0.00237z" class="cls-5"/>
   <path stroke="null" id="svg_52" fill="#3b80a6" stroke-width="0px" d="m12.71056,5.80518c-0.05401,-0.16612 -0.0788,-0.17917 -0.12328,-0.07831c-0.02478,0.05577 -0.01716,0.09255 0.04448,0.20765c0.12582,0.2302 0.17284,0.15663 0.0788,-0.12934z" class="cls-3"/>
   <path stroke="null" id="svg_53" fill="#ee3f21" stroke-width="0px" d="m24.3667,10.44825c0.18746,0.15663 0.31074,0.35479 0.36983,0.59922c0.04194,0.17561 0.04194,0.19816 0.00508,0.34529c-0.04448,0.17561 -0.18492,0.34529 -0.38699,0.46514c-0.11565,0.06408 -0.26626,0.08306 -0.99639,0.10086c-0.50328,0.00949 -1.00402,-0.00475 -1.20863,-0.03204c-0.19,-0.02729 -0.43656,-0.05933 -0.54522,-0.07357c-0.1703,-0.01899 -0.17983,-0.01424 -0.07371,0.02254c0.76954,0.25749 2.46938,0.29427 2.99235,0.06882c0.26371,-0.1151 0.47341,-0.37258 0.47341,-0.58498c0,-0.10561 -0.3997,-0.87095 -0.50582,-0.97181c-0.04194,-0.03678 -0.12074,-0.08306 -0.17284,-0.10086c-0.05401,-0.01424 -0.12582,-0.03678 -0.16013,-0.04628l-0.06164,-0.01899l0.06164,0.05102c0.03431,0.02729 0.12836,0.10561 0.2097,0.17561l-0.00064,0z" class="cls-5"/>
   <path stroke="null" id="svg_54" fill="#3b80a6" stroke-width="0px" d="m13.70695,7.91491c0.06164,-0.11035 0.11375,-0.2207 0.11375,-0.25393s-0.04702,-0.10561 -0.10612,-0.15663c-0.14552,-0.13408 -0.17539,-0.12459 -0.29866,0.08781c-0.18746,0.32275 -0.31836,0.38208 -0.5503,0.24443c-0.1309,-0.07831 -0.1309,-0.07357 -0.19254,0.03204c-0.03431,0.05933 -0.06164,0.12459 -0.06164,0.14714s0.07371,0.10561 0.16776,0.18867c0.31836,0.27647 0.65897,0.17087 0.92776,-0.29071l0,0.00119z" class="cls-3"/>
   <path stroke="null" id="svg_55" fill="#3b80a6" stroke-width="0px" d="m12.30832,6.50526c-0.0197,0.0973 0.03177,0.16612 0.12328,0.16612c0.0985,0 0.10866,-0.10086 0.0197,-0.17561c-0.08388,-0.07357 -0.12836,-0.06882 -0.14298,0.00949z" class="cls-3"/>
   <path stroke="null" id="svg_56" fill="#3b80a6" stroke-width="0px" d="m13.56143,5.57973c-0.0788,-0.10561 -0.13599,-0.06882 -0.13599,0.08781c0,0.05933 0.0197,0.08306 0.07181,0.08306c0.09151,0 0.12328,-0.08781 0.06418,-0.17087z" class="cls-3"/>
   <path stroke="null" id="svg_57" fill="#3b80a6" stroke-width="0px" d="m13.26785,5.48243c-0.05656,0.05933 -0.12582,0.35479 -0.09405,0.41411c0.02224,0.04153 0.08642,-0.09255 0.1506,-0.318c0.03177,-0.11984 0.00763,-0.16137 -0.05656,-0.0973l0,0.00119z" class="cls-3"/>
   <path stroke="null" id="svg_58" fill="#3b80a6" stroke-width="0px" d="m13.00668,5.62957c0,0.08781 0.01017,0.17087 0.02478,0.18867c0.02224,0.02729 0.0985,-0.2029 0.0985,-0.29902c0,-0.02254 -0.02732,-0.04628 -0.06164,-0.04628c-0.05401,0 -0.06164,0.01899 -0.06164,0.15663z" class="cls-3"/>
   <path stroke="null" id="svg_59" fill="#3b80a6" stroke-width="0px" d="m12.80906,5.78145c0.06672,0.20765 0.0985,0.18867 0.0985,-0.05577c0,-0.19816 -0.00254,-0.20765 -0.07371,-0.20765c-0.08642,0 -0.09405,0.05933 -0.02478,0.26223l0,0.00119z" class="cls-3"/>
   <path stroke="null" id="svg_60" fill="#3b80a6" stroke-width="0px" d="m12.58728,6.37118c0.06926,-0.04153 0.06164,-0.17087 -0.0197,-0.31326c-0.03686,-0.06882 -0.07625,-0.12459 -0.08642,-0.12459c-0.01462,0 -0.09151,0.24443 -0.09151,0.29427c0,0.05933 0.15569,0.16612 0.19763,0.14239l0,0.00119z" class="cls-3"/>
   <path stroke="null" id="svg_61" fill="#fff" stroke-width="0px" d="m13.45785,6.55629c0.12836,-0.15663 0.13789,-0.45564 0.01716,-0.57549c-0.06418,-0.06408 -0.10358,-0.05933 -0.16776,0.02729c-0.08134,0.10561 -0.07371,0.3358 0.01716,0.49718c0.06926,0.12459 0.07371,0.12459 0.13345,0.05102z" class="cls-4"/>
   <path stroke="null" id="svg_62" fill="#3b80a6" stroke-width="0px" d="m12.29116,6.91938c0,0.15188 0.03177,0.2124 0.11375,0.2124c0.09405,0 0.13345,-0.0973 0.08388,-0.20765c-0.0394,-0.09255 -0.19763,-0.09255 -0.19763,-0.00475z" class="cls-3"/>
   <path stroke="null" id="svg_63" fill="#ee3f21" stroke-width="0px" d="m28.19023,12.44763c0.07181,0.03204 0.18492,-0.00949 0.18492,-0.06882c0,-0.02254 -0.05401,-0.04153 -0.12328,-0.04153c-0.1309,0 -0.16522,0.06408 -0.06164,0.11035z" class="cls-5"/>
   <path stroke="null" id="svg_64" fill="#ee3f21" stroke-width="0px" d="m20.18032,9.76241c-0.12836,0.00949 0.16522,0.19816 0.32535,0.20765l0.16013,0.01424l-0.12328,-0.04153c-0.06672,-0.01899 -0.16522,-0.06882 -0.21478,-0.11035c-0.05211,-0.04153 -0.11819,-0.07357 -0.14806,-0.06882l0.00064,-0.00119z" class="cls-5"/>
   <path stroke="null" id="svg_65" fill="#ee3f21" stroke-width="0px" d="m21.17163,9.98786c0,0.02729 0.0591,0.04628 0.1309,0.04153c0.10104,-0.00475 0.11565,-0.01424 0.06672,-0.04153c-0.08896,-0.05577 -0.19763,-0.05577 -0.19763,0z" class="cls-5"/>
   <path stroke="null" id="svg_66" fill="#ee3f21" stroke-width="0px" d="m18.34704,9.61409c0.1506,0 0.29866,-0.01899 0.33298,-0.03678l0.06164,-0.03204l-0.06164,-0.03204c-0.03431,-0.01424 -0.28341,-0.05933 -0.55475,-0.0973c-0.67104,-0.0973 -0.80194,-0.10561 -0.78923,-0.06882c0.00763,0.01899 0.04957,0.04628 0.09595,0.05933c0.12074,0.04153 0.20716,0.18867 0.21733,0.36428c0.00763,0.14714 0.01017,0.14714 0.19254,0.20765c0.25672,0.07831 0.31582,0.05577 0.16776,-0.07831c-0.22686,-0.19816 -0.13345,-0.27647 0.33806,-0.28596l-0.00064,0z" class="cls-5"/>
   <path stroke="null" id="svg_67" fill="#ee3f21" stroke-width="0px" d="m19.54106,10.95967c-0.11375,-0.03204 -0.43402,-0.13764 -0.71044,-0.23969c-0.27642,-0.10086 -0.63863,-0.2207 -0.80194,-0.27173c-0.16522,-0.05102 -0.32345,-0.09255 -0.35268,-0.09255c-0.04957,0 -0.04957,0.00949 0.0197,0.13408c0.0394,0.07357 0.07181,0.15663 0.07181,0.17917c0,0.02729 -0.0394,0.09255 -0.08642,0.14714c-0.11565,0.13408 -0.10866,0.18392 0.0197,0.18392c0.08388,0 0.13345,-0.03204 0.21478,-0.15188c0.0591,-0.07831 0.12582,-0.17561 0.15314,-0.2124c0.0394,-0.05577 0.08642,-0.04153 0.3603,0.10086c0.5897,0.31326 1.54161,0.72737 1.65282,0.72262c0.02224,-0.00475 -0.04194,-0.05577 -0.14298,-0.1151c-0.10104,-0.05933 -0.2097,-0.13764 -0.24147,-0.17087l-0.05656,-0.05577l0.05401,-0.05577c0.04702,-0.04628 0.02732,-0.05933 -0.15314,-0.10561l-0.00064,0.00356z" class="cls-5"/>
   <path stroke="null" id="svg_68" fill="#f7ee1d" stroke-width="0px" d="m19.98778,11.18037c0.04448,0.05102 0.57254,0.24443 0.95,0.34529c0.76954,0.20765 2.22981,0.34529 2.79981,0.27173c0.31328,-0.04628 0.2885,-0.04628 -0.44672,-0.05577c-0.42893,0 -0.92268,-0.02729 -1.09807,-0.05102c-0.44164,-0.06408 -1.26074,-0.25749 -1.68713,-0.40106c-0.46134,-0.14714 -0.56746,-0.17087 -0.5179,-0.11035l0,0.00119z" class="cls-2"/>
   <path stroke="null" id="svg_69" fill="#ee3f21" stroke-width="0px" d="m24.45058,10.771l-1.31221,0.00949c-1.32238,0.00475 -1.82566,0.03204 -2.5952,0.14239c-0.41432,0.05933 -0.41686,0.05933 -0.2885,0.1151c0.19254,0.08306 1.09298,0.318 1.52191,0.39632c1.47743,0.27647 2.63459,0.17917 2.71847,-0.2302c0.00763,-0.04153 0,-0.15188 -0.01462,-0.25393l-0.02987,-0.17917z" class="cls-5"/>
   <path stroke="null" id="svg_70" fill="#f7ee1d" stroke-width="0px" d="m24.11951,11.73331c0.09405,0.00949 0.34505,-0.13764 0.43656,-0.24918c0.05211,-0.06408 0.10104,-0.17087 0.10866,-0.23494c0.01017,-0.07831 0.00254,-0.14239 -0.02478,-0.19341c-0.03686,-0.06882 -0.0394,-0.06408 -0.0394,0.04628c0,0.24443 -0.14806,0.4509 -0.40733,0.57074c-0.06672,0.03204 -0.10104,0.05933 -0.07371,0.05933l0,0.00119z" class="cls-2"/>
   <path stroke="null" id="svg_71" fill="#f7ee1d" stroke-width="0px" d="m15.45572,12.38237c-0.14806,-0.04628 -0.37492,-0.10086 -0.50582,-0.11984l-0.24147,-0.03204l0,0.16612c0,0.27647 0.25418,1.11063 0.51281,1.68612c0.17284,0.37733 0.45117,0.57549 0.9373,0.66804l0.12836,0.02254l0,-0.15663c0,-0.27173 -0.22686,-1.36338 -0.37746,-1.80597c-0.09405,-0.27647 -0.15569,-0.3358 -0.45371,-0.42835z" class="cls-2"/>
   <path stroke="null" id="svg_72" fill="#fff" stroke-width="0px" d="m17.04436,6.68918c-0.03431,0.0973 -0.03431,0.11984 -0.00254,0.20765c0.04194,0.10561 0.10866,0.12459 0.15314,0.04153c0.04194,-0.07831 0.03686,-0.19341 -0.01462,-0.28122c-0.06164,-0.10561 -0.09151,-0.0973 -0.13599,0.03204z" class="cls-4"/>
   <path stroke="null" id="svg_73" fill="#fff" stroke-width="0px" d="m16.53155,14.82434c0.23448,0.1151 1.75385,0.29071 2.30924,0.26698l0.34505,-0.01424l0,-0.23969c-0.00254,-0.35953 -0.05656,-0.46039 -0.3406,-0.67279c-0.1309,-0.09255 -0.27134,-0.18392 -0.31328,-0.19816c-0.06926,-0.02729 -0.07371,-0.02254 -0.07371,0.10561c0,0.18867 -0.10104,0.36902 -0.25927,0.4509c-0.10104,0.05577 -0.25927,0.06882 -0.79178,0.05933l-0.66341,-0.01424l-0.00763,-0.16137c-0.01017,-0.20765 0.03177,-0.30851 0.15569,-0.39157c0.05401,-0.03678 0.08134,-0.06408 0.0591,-0.06882c-0.05401,0 -0.16268,-0.2302 -0.18238,-0.38208c-0.01207,-0.08306 -0.00254,-0.20765 0.02478,-0.34055c0.03431,-0.16612 0.03686,-0.21596 0.01017,-0.24443c-0.01716,-0.02254 -0.16013,-0.10086 -0.31582,-0.17917c-0.31328,-0.15188 -0.49565,-0.2302 -0.49565,-0.2124c0,0.00475 0.05401,0.22545 0.12074,0.48887c0.1309,0.51616 0.27388,1.23878 0.27388,1.37761c0,0.17917 0.05656,0.32275 0.14552,0.36902l-0.00064,0.00119z" class="cls-4"/>
   <path stroke="null" id="svg_74" fill="#ee3f21" stroke-width="0px" d="m26.52724,14.17885c0.0788,0 0.10358,-0.04153 0.06926,-0.12459c-0.03431,-0.07357 -0.16013,-0.07831 -0.18492,-0.00949c-0.02224,0.06882 0.03431,0.13408 0.11565,0.13408z" class="cls-5"/>
   <path stroke="null" id="svg_75" fill="#f7ee1d" stroke-width="0px" d="m17.866,14.17885c-0.12328,0 -0.22177,0.05577 -0.22177,0.12459c0,0.05933 0.04448,0.06882 0.29104,0.05102c0.15759,-0.00949 0.31328,-0.04153 0.3406,-0.07357c0.08134,-0.08306 0.09405,-0.19341 0.03177,-0.31326c-0.04957,-0.0973 -0.08642,-0.13408 -0.25672,-0.24918c-0.05656,-0.04153 -0.06418,-0.05933 -0.03686,-0.09255c0.0197,-0.02729 0.08134,-0.04628 0.13599,-0.04628c0.10358,0 0.18238,-0.05933 0.14044,-0.10561c-0.01207,-0.01899 -0.14552,-0.04628 -0.29866,-0.05933l-0.27388,-0.03204l0,0.13408c0,0.19341 0.02478,0.23969 0.15759,0.29427c0.14806,0.05933 0.21224,0.12459 0.21224,0.2029c0,0.07357 -0.12328,0.16612 -0.22177,0.16612l0,-0.00119z" class="cls-2"/>
   <path stroke="null" id="svg_76" fill="#f7ee1d" stroke-width="0px" d="m17.07677,14.20258c-0.19,0.05102 -0.22177,0.06882 -0.22177,0.13764c0,0.10561 0.03431,0.1151 0.28341,0.06882c0.24401,-0.04628 0.33806,-0.10561 0.41686,-0.27173c0.10104,-0.2124 0.06418,-0.80094 -0.06164,-0.91248c-0.03431,-0.03204 -0.1506,-0.06882 -0.25927,-0.08306c-0.2294,-0.03204 -0.30565,0.02254 -0.3406,0.23969c-0.03431,0.2302 0.02732,0.36902 0.17539,0.40581c0.20462,0.05102 0.2294,0.06408 0.2294,0.16137c0,0.11984 -0.08642,0.2207 -0.22177,0.25393zm0.2097,-0.71432c-0.0197,0.11035 -0.11565,0.12459 -0.16268,0.01899c-0.02732,-0.06408 -0.02478,-0.08306 0.01462,-0.13764c0.09405,-0.12934 0.17793,-0.05933 0.14806,0.11984l0,-0.00119z" class="cls-2"/>
   <path stroke="null" id="svg_77" fill="#3b80a6" stroke-width="0px" d="m13.73173,5.86926c-0.06418,-0.04628 -0.08388,-0.03204 -0.08388,0.06408c0,0.06882 0.01716,0.09255 0.06164,0.09255c0.06926,0 0.08388,-0.11035 0.02224,-0.15663z" class="cls-3"/>
   <path stroke="null" id="svg_78" fill="#3b80a6" stroke-width="0px" d="m17.37988,7.16856c0.09151,-0.00949 0.12836,-0.03204 0.12836,-0.07831c0,-0.03678 -0.01017,-0.06882 -0.02478,-0.07357c-0.02224,-0.00949 -0.04194,-0.00475 -0.17793,0.05102c-0.1112,0.04153 -0.05656,0.1151 0.07371,0.10086l0.00064,0z" class="cls-3"/>
   <path stroke="null" id="svg_79" fill="#3b80a6" stroke-width="0px" d="m16.91663,6.35338c-0.0197,-0.06408 -0.05401,-0.06408 -0.07371,-0.00475c-0.00763,0.02729 0.00254,0.05933 0.02478,0.07357c0.04702,0.03678 0.07371,0 0.04957,-0.06882l-0.00064,0z" class="cls-3"/>
   <path stroke="null" id="svg_80" fill="#3b80a6" stroke-width="0px" d="m17.27439,7.43554c-0.04702,0.03204 0.1112,0.19816 0.19,0.2029c0.04448,0 0.10612,-0.1151 0.10612,-0.19816c0,-0.05933 -0.20716,-0.05933 -0.29612,-0.00475z" class="cls-3"/>
   <path stroke="null" id="svg_81" fill="#3b80a6" stroke-width="0px" d="m17.25914,6.44119c-0.0197,0 -0.02987,0.01899 -0.02224,0.04628c0.00763,0.02254 0.03177,0.04628 0.05211,0.04628s0.02987,-0.02254 0.02224,-0.04628c-0.00763,-0.02729 -0.03177,-0.04628 -0.05211,-0.04628z" class="cls-3"/>
   <path stroke="null" id="svg_82" fill="#3b80a6" stroke-width="0px" d="m17.25406,7.89118c0.0985,0.17087 0.17793,0.20765 0.20207,0.08781q0.02224,-0.10086 -0.0591,-0.17917c-0.0394,-0.03678 -0.10866,-0.06882 -0.15314,-0.06882l-0.08134,0.00475l0.09151,0.15663l0,-0.00119z" class="cls-3"/>
   <path stroke="null" id="svg_83" fill="#3b80a6" stroke-width="0px" d="m17.46376,6.84106c0.03177,-0.05933 0.03431,-0.08781 0.00763,-0.14239c-0.03177,-0.07831 -0.04194,-0.08306 -0.09151,-0.04153c-0.04448,0.03204 -0.0394,0.12934 0.00763,0.19816c0.02987,0.05102 0.04448,0.04628 0.07625,-0.01424z" class="cls-3"/>
   <path stroke="null" id="svg_84" fill="#3b80a6" stroke-width="0px" d="m16.71646,6.28456q-0.04702,-0.03204 -0.06672,0c-0.02478,0.05102 0.00763,0.11035 0.0591,0.11035c0.05656,0 0.06164,-0.06882 0.00763,-0.11035z" class="cls-3"/>
   <path stroke="null" id="svg_85" fill="#3b80a6" stroke-width="0px" d="m13.71204,6.26557c-0.06672,0.17917 -0.05211,0.23494 0.05401,0.19816c0.11565,-0.03678 0.14806,-0.09255 0.11375,-0.19816c-0.04194,-0.11984 -0.12328,-0.11984 -0.16776,0z" class="cls-3"/>
   <path stroke="null" id="svg_86" fill="#ee3f21" stroke-width="0px" d="m20.29344,13.42418c-0.0591,-0.04153 -0.18238,-0.03204 -0.18238,0.01424s0.08388,0.0973 0.16776,0.0973c0.06164,0 0.07371,-0.06882 0.01462,-0.11035l0,-0.00119z" class="cls-5"/>
   <path stroke="null" id="svg_87" fill="#3b80a6" stroke-width="0px" d="m13.611,6.76275c0,0.05577 0.0394,0.07357 0.16776,0.08306c0.16268,0.01424 0.16776,0.00949 0.16013,-0.09255c-0.00763,-0.11984 -0.04448,-0.13408 -0.21733,-0.08781c-0.07625,0.01899 -0.1112,0.05102 -0.1112,0.0973l0.00064,0z" class="cls-3"/>
   <path stroke="null" id="svg_88" fill="#3b80a6" stroke-width="0px" d="m13.77876,7.37146c0.1112,0.06408 0.15569,0.00949 0.1309,-0.16612c-0.01462,-0.11035 -0.02732,-0.11984 -0.1506,-0.11984c-0.21224,0 -0.20207,0.16137 0.0197,0.28596z" class="cls-3"/>
   <path stroke="null" id="svg_89" fill="#3b80a6" stroke-width="0px" d="m16.34917,8.20918c-0.0788,0.0973 -0.06672,0.13764 0.09405,0.29427c0.1112,0.10561 0.15569,0.12459 0.35014,0.12459c0.22686,0 0.3603,-0.07831 0.48612,-0.29071c0.05211,-0.08306 0.02732,-0.16137 -0.08134,-0.26698c-0.08388,-0.07831 -0.07181,-0.07831 -0.14552,0.02254c-0.14552,0.19816 -0.36983,0.24443 -0.54268,0.1151c-0.09151,-0.06882 -0.10358,-0.06882 -0.16013,0l-0.00064,0.00119z" class="cls-3"/>
   <path stroke="null" id="svg_90" fill="#fff" stroke-width="0px" d="m12.05922,15.90175c-0.04448,-0.41886 -0.14044,-0.566 -0.38953,-0.58498l-0.15314,-0.00949l-0.06164,0.40106c-0.10358,0.6538 -0.1506,0.65855 -0.21224,0.01424c-0.02224,-0.24443 -0.0591,-0.46988 -0.0788,-0.50667s-0.04957,-0.06408 -0.06418,-0.06408c-0.12074,0.02254 -0.27134,0.08781 -0.29866,0.12934c-0.0591,0.09255 -0.29612,1.16996 -0.2688,1.22099c0.01017,0.01424 0.0591,0.02729 0.11375,0.02729c0.07371,0 0.1112,-0.03204 0.16522,-0.13764c0.07625,-0.15188 0.17284,-0.17917 0.22177,-0.06882c0.02478,0.05577 0.08896,0.06882 0.2885,0.06882s0.25927,-0.01424 0.2688,-0.06882c0.0197,-0.0973 0.07371,-0.08781 0.11375,0.01899c0.06926,0.17917 0.38953,0.51141 0.38953,0.39632c0,-0.01899 -0.02987,-0.13408 -0.06672,-0.25749l-0.06926,-0.2302l0.0591,-0.08306c0.05211,-0.07357 0.05656,-0.10561 0.04194,-0.26223l0.00064,-0.00356zm-1.15716,0.14714c-0.08388,-0.03678 -0.10358,-0.16612 -0.05656,-0.36902c0.05401,-0.23969 0.10104,-0.2124 0.15759,0.0973c0.03431,0.19341 -0.01017,0.318 -0.10104,0.27173zm0.89281,-0.05933c-0.05401,-0.00475 -0.11565,-0.03204 -0.13599,-0.06408c-0.03686,-0.05577 -0.02732,-0.19341 0.0197,-0.30851c0.03431,-0.07831 0.06926,-0.06882 0.16268,0.03678c0.15314,0.17561 0.12836,0.34529 -0.04702,0.3358l0.00064,0z" class="cls-4"/>
   <path stroke="null" id="svg_91" fill="#fff" stroke-width="0px" d="m9.56506,16.21026c-0.08134,0.13764 -0.1112,0.22545 -0.1112,0.32275c0,0.17561 -0.02987,0.19816 -0.1112,0.07831l-0.06672,-0.0973l-0.0985,0.18867l-0.10104,0.18392l0.14298,0.28122c0.10104,0.19816 0.1506,0.34055 0.1703,0.48412l0.02732,0.19816l0.14044,-0.23969l0.14044,-0.23494l0.01716,-0.67753c0.01207,-0.50667 0.01017,-0.67753 -0.01207,-0.67753c-0.01462,0 -0.0788,0.08781 -0.13789,0.18867l0,0.00119z" class="cls-4"/>
   <path stroke="null" id="svg_92" fill="#ee3f21" stroke-width="0px" d="m10.42864,10.77575c-0.26626,-0.13764 -0.5306,0.02729 -0.76699,0.47938c-0.4588,0.87925 -0.90044,2.99373 -1.00656,4.82343c-0.00763,0.14714 -0.01017,0.26698 0,0.26698c0.00763,0 0.16013,-0.26223 0.33806,-0.58973c0.3997,-0.71906 0.68311,-1.12369 1.02626,-1.45118c0.4194,-0.40581 0.84134,-0.64431 1.35415,-0.77365c0.12582,-0.02729 0.23448,-0.07357 0.24147,-0.0973c0.02224,-0.06882 -0.16268,-0.73686 -0.3406,-1.23048c-0.24656,-0.70008 -0.60686,-1.30405 -0.84643,-1.42745l0.00064,0z" class="cls-5"/>
   <path stroke="null" id="svg_93" fill="#fff" stroke-width="0px" d="m10.23102,15.84242c0.1112,-0.09255 0.17539,-0.23969 0.1506,-0.35479c-0.00763,-0.03678 -0.02732,-0.06408 -0.04702,-0.06408c-0.02732,0 -0.48104,0.39157 -0.50836,0.43785c-0.01462,0.03204 0.05401,1.17946 0.07371,1.202c0.02732,0.02729 0.41432,-0.28596 0.47341,-0.38208c0.04448,-0.07831 0.05401,-0.22545 0.0197,-0.32749c-0.01716,-0.05577 -0.03431,-0.05102 -0.09595,0.00949c-0.04194,0.04153 -0.09405,0.07357 -0.11565,0.07357c-0.06926,0 -0.02478,-0.11035 0.08134,-0.20765c0.07625,-0.06882 0.10358,-0.11984 0.10358,-0.19341c0,-0.12459 0.00763,-0.12459 -0.12328,-0.03678c-0.18238,0.11984 -0.19508,-0.00475 -0.01207,-0.15663z" class="cls-4"/>
   <path stroke="null" id="svg_94" fill="#ee3f21" stroke-width="0px" d="m12.3331,18.45408c-0.01716,-0.01899 -0.06926,-0.05933 -0.11565,-0.08306c-0.04702,-0.02729 -0.20207,-0.05933 -0.34505,-0.06882c-0.2097,-0.01899 -0.28595,-0.00949 -0.39462,0.05933c-0.64117,0.40106 -1.11014,1.38711 -1.3497,2.84185c-0.06418,0.39632 -0.06672,0.45564 -0.06926,1.45118c0,0.94926 0.00508,1.0691 0.05656,1.40491c0.14806,0.95757 0.34315,1.61256 0.64626,2.18805c0.31328,0.59447 0.57953,0.8662 0.95699,0.97181c0.3997,0.1151 0.77208,-0.08306 1.11268,-0.58498c0.23448,-0.34529 0.27642,-0.46988 0.21478,-0.62651c-0.02224,-0.05933 -0.07371,-0.18867 -0.11375,-0.29071c-0.0394,-0.10086 -0.07181,-0.21596 -0.07181,-0.25393c-0.00254,-0.03678 0.05401,-0.23494 0.12074,-0.43785c0.1309,-0.39157 0.14298,-0.46514 0.08896,-0.59922c-0.03177,-0.08306 -0.0394,-0.07831 -0.17284,0.08781c-0.22177,0.27647 -0.38509,0.36428 -0.62402,0.34055c-0.26371,-0.02729 -0.47596,-0.2124 -0.6882,-0.61227c-0.61194,-1.13793 -0.48358,-3.14205 0.24401,-3.82315c0.16013,-0.15188 0.18746,-0.16137 0.40923,-0.16137c0.1309,0 0.25164,-0.01899 0.27134,-0.04153c0.02732,-0.03204 0.01716,-0.18392 -0.05656,-0.884c-0.05211,-0.46514 -0.10612,-0.86145 -0.12074,-0.87925l0.00064,0.00119zm-0.45626,7.37457l0.05656,-0.13764l0.20716,0.02729c0.33806,0.04153 0.39716,0.14239 0.39716,0.69059c0,0.46988 -0.0394,0.54345 -0.28151,0.566c-0.29612,0.02729 -0.40224,-0.01424 -0.46134,-0.18867c-0.08388,-0.25749 -0.05211,-0.636 0.08134,-0.95757l0.00064,0zm-1.69476,-2.21534c-0.10612,-0.2302 -0.14552,-0.91722 -0.07371,-1.34914c0.01716,-0.12459 0.04957,-0.23969 0.06672,-0.25749c0.0985,-0.11984 0.4785,0 0.56492,0.17087c0.05656,0.11035 0.0591,0.14714 0.0591,0.72262l0,0.60397l-0.12074,0.1151c-0.09405,0.09255 -0.16013,0.11984 -0.28151,0.11984c-0.14044,0 -0.16268,-0.01424 -0.21478,-0.12459l0,-0.00119zm1.08281,1.30405c0.23448,0.46988 0.24147,0.61702 0.05401,0.97655c-0.13345,0.25749 -0.24656,0.37258 -0.32789,0.33224c-0.12582,-0.05577 -0.39716,-0.67279 -0.4391,-0.99554c-0.02224,-0.16137 0.07371,-0.36902 0.23957,-0.52091c0.07181,-0.06408 0.1703,-0.11984 0.21987,-0.11984c0.08134,0 0.10866,0.03678 0.25418,0.32749l-0.00064,0zm-0.01716,-4.50543c-0.08896,0.27647 -0.3209,0.67753 -0.39462,0.67753c-0.0788,0 -0.36284,-0.35479 -0.40923,-0.51141c-0.02224,-0.07831 -0.02987,-0.17087 -0.01716,-0.28596c0.0197,-0.2029 0.2097,-0.68584 0.33298,-0.83891c0.04702,-0.06408 0.10866,-0.1151 0.13599,-0.1151c0.11819,0 0.32345,0.38682 0.38953,0.73686c0.0197,0.1151 0.01462,0.17087 -0.03686,0.3358l-0.00064,0.00119zm0.98178,-0.70008c-0.05401,0.01899 -0.18492,0.04153 -0.2885,0.04628c-0.17284,0.01424 -0.19763,0 -0.25418,-0.0973c-0.03431,-0.05933 -0.08134,-0.2124 -0.10866,-0.34055c-0.10104,-0.52091 -0.08642,-0.76415 0.05211,-0.884c0.05656,-0.04628 0.13789,-0.05933 0.25672,-0.05102c0.32345,0.03204 0.42893,0.25393 0.43656,0.91722l0.00508,0.37733l-0.0985,0.03204l-0.00064,0z" class="cls-5"/>
   <path stroke="null" id="svg_95" fill="#fff" stroke-width="0px" d="m10.94908,29.85469c-0.0788,-0.06882 -0.09151,-0.06882 -0.14806,0c-0.08134,0.10086 -0.08642,0.10086 -0.11375,-0.03678c-0.01207,-0.05933 -0.06418,-0.16137 -0.11565,-0.22545c-0.05211,-0.06408 -0.12582,-0.12934 -0.16522,-0.14714c-0.0591,-0.02729 -0.06926,-0.01899 -0.05656,0.04153c0.00763,0.04153 0.02732,0.16137 0.04194,0.26223l0.02732,0.19341l-0.12836,0.21596c-0.10612,0.17917 -0.12582,0.2302 -0.10866,0.32275c0.03431,0.20765 0.40224,0.55769 0.5897,0.55769c0.03686,0 0.26181,-0.85671 0.26181,-1.00384c0,-0.07357 -0.02478,-0.12459 -0.08388,-0.17917l-0.00064,-0.00119zm-0.34505,0.70008c-0.05656,0 -0.10104,-0.12459 -0.08134,-0.22545c0.0197,-0.08781 0.04194,-0.09255 0.10104,-0.01424c0.05656,0.07831 0.04194,0.23969 -0.0197,0.23969z" class="cls-4"/>
   <path stroke="null" id="svg_96" fill="#ee3f21" stroke-width="0px" d="m12.04397,28.47352c0.56746,-0.38208 1.0879,-1.23404 1.35415,-2.21534c0.09405,-0.34055 0.04448,-0.25749 -0.10866,0.18867c-0.26626,0.76415 -0.70535,1.48322 -1.07773,1.76918c-0.43147,0.32749 -0.9697,0.33105 -1.40118,0.00949c-0.37492,-0.28122 -0.82863,-0.98604 -1.07773,-1.67663c-0.22432,-0.62651 -0.40923,-1.46067 -0.50582,-2.29365c-0.0788,-0.69059 -0.0788,-2.01243 0.00254,-2.70421c0.21224,-1.83801 0.77462,-3.22037 1.54161,-3.78636c0.19,-0.13764 0.21987,-0.14714 0.59669,-0.16612c0.39208,-0.01899 0.3997,-0.01899 0.61703,0.12459c0.11819,0.07357 0.22177,0.13408 0.22432,0.12459c0.01462,-0.02729 -0.23194,-0.20765 -0.37492,-0.28122c-0.63164,-0.30376 -1.34208,0.10086 -1.86506,1.07741c-0.24147,0.4509 -0.39208,0.86145 -0.56492,1.53899c-0.25418,0.9991 -0.3082,1.48797 -0.30565,2.75048c0,1.05012 0.03686,1.50576 0.18492,2.2889c0.20462,1.07385 0.59224,2.09075 1.02372,2.66742c0.2097,0.28122 0.53315,0.55769 0.74984,0.64431c0.25672,0.10086 0.79432,0.06882 0.98686,-0.05933l0,-0.00119z" class="cls-5"/>
   <path stroke="null" id="svg_97" fill="#ee3f21" stroke-width="0px" d="m6.47167,16.53776c-0.00763,0.35004 0.14806,3.22867 0.18492,3.45887c0.00763,0.04628 -0.00254,0.09255 -0.02732,0.10561c-0.04448,0.03204 -0.24401,-0.24443 -0.71552,-0.99079c-0.17539,-0.28122 -0.33298,-0.51141 -0.34759,-0.51141s-0.06164,0.32749 -0.10612,0.72262c-0.14044,1.31235 -0.21224,1.62561 -0.36539,1.62561c-0.13345,0 -0.13345,0.03204 0.0197,0.79263s0.19,1.00384 0.15569,1.00384c-0.01207,0 -0.13345,-0.17917 -0.2688,-0.40106c-0.28341,-0.45564 -0.77208,-1.19251 -0.98178,-1.48322c-0.17284,-0.23494 -0.25927,-0.30851 -0.48866,-0.39632c-0.27134,-0.10561 -0.33552,-0.18392 -0.4588,-0.53871c-0.09405,-0.27173 -0.17983,-0.40106 -0.17983,-0.27173c0,0.17917 0.06672,0.52921 0.1112,0.58498c0.02987,0.03678 0.25672,0.2302 0.50328,0.4331c0.7079,0.57549 0.77208,0.6633 1.06312,1.47373c0.10612,0.29071 0.21224,0.566 0.23957,0.60753c0.12582,0.2124 0.37746,0.35953 1.80342,1.05487c0.72061,0.35004 0.87566,0.41411 0.89536,0.35953c0.01207,-0.03678 0.02224,-0.56244 0.02224,-1.16996c0.00254,-1.63985 0.03686,-2.1655 0.22177,-3.28444l0.09595,-0.58024l-0.2294,-0.46039c-0.51535,-1.03232 -1.14699,-2.21059 -1.14699,-2.13702l0,0.00237z" class="cls-5"/>
   <path stroke="null" id="svg_98" fill="#fff" stroke-width="0px" d="m9.12088,17.97945c-0.06418,-0.19341 -0.0788,-0.36428 -0.03686,-0.41411c0.03686,-0.04153 0.02987,-0.19341 -0.01207,-0.34529c-0.02224,-0.07831 -0.04957,-0.13764 -0.06418,-0.13764c-0.05401,0 -0.41686,0.82467 -0.41686,0.94451c0,0.03678 0.02732,0.11984 0.0591,0.19341c0.05211,0.11035 0.06418,0.11984 0.0985,0.06408c0.03431,-0.05577 0.04957,-0.05102 0.10358,0.04628c0.03431,0.05933 0.08642,0.17917 0.11375,0.26698l0.05211,0.15663l0.08388,-0.16612c0.0985,-0.2029 0.10358,-0.35479 0.0197,-0.60753l-0.00064,-0.00119z" class="cls-4"/>
   <path stroke="null" id="svg_99" fill="#3b80a6" stroke-width="0px" d="m4.10079,21.88565c0.07371,0.31326 0.08642,0.55294 0.0394,0.81992c-0.02478,0.12934 -0.03686,0.24918 -0.02987,0.25749c0.0197,0.04153 0.43402,-0.03678 0.43402,-0.07831c0,-0.04628 -0.31836,-0.93502 -0.39208,-1.0964c-0.07625,-0.16612 -0.10104,-0.11984 -0.05211,0.0973l0.00064,0z" class="cls-3"/>
   <path stroke="null" id="svg_100" fill="#fff" stroke-width="0px" d="m8.11686,22.69608c0.30121,0.2124 0.3209,0.2207 0.3406,0.07831c0.00763,-0.06408 0.00763,-0.18867 0,-0.27647c-0.01462,-0.14714 -0.02987,-0.17087 -0.27388,-0.36902c-0.14298,-0.1151 -0.27134,-0.2124 -0.28341,-0.2124c-0.03177,0 -0.03177,0.25393 0,0.46988c0.02478,0.15663 0.0394,0.17917 0.21733,0.30851l-0.00064,0.00119z" class="cls-4"/>
   <path stroke="null" id="svg_101" fill="#ee3f21" stroke-width="0px" d="m11.96771,20.50804c-0.57699,0.38208 -0.81402,1.84275 -0.49565,3.05899c0.09595,0.37258 0.29866,0.76059 0.48866,0.93502c0.14806,0.13764 0.16776,0.14239 0.3997,0.12459c0.22432,-0.01424 0.25418,-0.02729 0.38509,-0.17561c0.07625,-0.08781 0.16776,-0.2124 0.19953,-0.27647l0.0591,-0.1151l-0.09595,-0.71432c-0.05211,-0.39157 -0.14044,-1.11894 -0.19763,-1.61256c-0.11375,-0.99554 -0.15569,-1.202 -0.24656,-1.24828c-0.10612,-0.05577 -0.40224,-0.04153 -0.49565,0.02254l-0.00064,0.00119z" class="cls-5"/>
   <path stroke="null" id="svg_102" fill="#fff" stroke-width="0px" d="m8.39074,23.13868c-0.11819,-0.11984 -0.15759,-0.09255 -0.18492,0.12459c-0.02478,0.2124 -0.04448,0.22545 -0.23194,0.17087c-0.0591,-0.01899 -0.06164,-0.01424 -0.06926,0.31326c-0.00508,0.28122 0,0.33105 0.03686,0.35479c0.10612,0.05933 0.53315,0.25749 0.55475,0.25749c0.02732,0 0.00508,-0.95401 -0.02224,-1.09165c-0.00763,-0.03678 -0.04448,-0.09255 -0.08388,-0.12934l0.00064,0z" class="cls-4"/>
   <path stroke="null" id="svg_103" fill="#fff" stroke-width="0px" d="m8.57057,18.49561l-0.07181,-0.12934l-0.04194,0.11984c-0.06418,0.18392 -0.07625,0.37258 -0.02987,0.50667c0.02478,0.06882 0.0394,0.16137 0.03431,0.21596q-0.00763,0.09255 -0.06926,0c-0.0788,-0.1151 -0.11375,-0.08781 -0.17539,0.13764l-0.04957,0.18392l0.06926,0.18867c0.03686,0.10561 0.13345,0.31326 0.2097,0.46514c0.15759,0.30851 0.18492,0.30376 0.24147,-0.01899c0.02987,-0.17087 0.02987,-0.19816 -0.0197,-0.32275c-0.05401,-0.13408 -0.07371,-0.32275 -0.03431,-0.32275c0.01207,0 0.04194,0.03204 0.06926,0.06882c0.08134,0.1151 0.12328,0.08306 0.1703,-0.13764l0.04194,-0.2124l-0.13599,-0.30851c-0.07625,-0.17087 -0.1703,-0.36902 -0.2097,-0.43785l0.00127,0.00356z" class="cls-4"/>
   <path stroke="null" id="svg_104" fill="#fff" stroke-width="0px" d="m8.31703,20.44871c-0.03686,0.11035 -0.02478,0.55769 0.01462,0.64075c0.03431,0.06882 0.03431,0.08306 0,0.13764c-0.07625,0.11984 -0.10612,-0.01899 -0.11565,-0.52921c-0.00763,-0.41411 -0.01462,-0.48887 -0.05656,-0.5482c-0.02732,-0.04153 -0.05656,-0.07357 -0.06672,-0.07357c-0.06672,-0.00475 -0.12582,1.1842 -0.07181,1.48797c0.0394,0.21596 0.13345,0.35479 0.24147,0.35479c0.17793,0 0.23702,-0.15663 0.2885,-0.76415l0.03431,-0.40106l-0.08896,-0.14239c-0.12328,-0.20765 -0.15569,-0.23494 -0.17983,-0.16137l0.00064,-0.00119z" class="cls-4"/>
   <path stroke="null" id="svg_105" fill="#ee3f21" stroke-width="0px" d="m30.94301,17.6567c-0.0394,-0.60397 -0.13599,-1.48797 -0.19953,-1.8653c-0.45371,-2.60216 -1.59626,-4.58374 -3.02921,-5.25178c-0.27642,-0.12934 -0.96462,-0.34055 -0.98686,-0.30376c-0.00508,0.00949 0.05656,0.05102 0.13599,0.09255c0.90997,0.47463 1.5467,1.05961 1.90446,1.75495c0.26626,0.51616 0.26181,0.64431 -0.04448,1.18895c-0.37238,0.65855 -1.08027,1.45118 -1.43104,1.60306c-0.19,0.07831 -0.87311,0.03204 -1.98834,-0.13764c-1.61596,-0.24918 -2.04489,-0.29427 -3.54012,-0.37258c-0.92776,-0.05102 -1.49014,-0.11035 -1.77355,-0.18867c-0.19508,-0.05577 -0.64117,-0.28596 -1.19148,-0.61702c-0.18492,-0.1151 -0.35014,-0.20765 -0.36539,-0.20765s-0.02478,0.05577 -0.0197,0.12459c0.01017,0.15188 0.05656,0.2029 0.4391,0.47938c0.14298,0.10086 0.28595,0.2302 0.31836,0.28596c0.14044,0.24443 0.19953,0.81518 0.10358,0.99554c-0.06926,0.12934 -0.30121,0.16137 -0.89027,0.12934c-1.29506,-0.07831 -2.68162,-0.39157 -2.98727,-0.68228c-0.2688,-0.25393 -0.79432,-1.69562 -0.83117,-2.27585c-0.01017,-0.17087 -0.00254,-0.20765 0.04957,-0.27173c0.19,-0.2302 0.6882,-0.10561 1.98071,0.50192c0.34759,0.16612 0.67104,0.29902 0.71298,0.29902c0.04448,0 0.14552,0.04153 0.22432,0.09255c0.12328,0.07831 0.62656,0.20765 0.6488,0.16612c0.02224,-0.04153 -0.93984,-0.62651 -1.97817,-1.202c-0.76954,-0.42835 -0.8388,-0.48887 -1.39863,-1.17946c-0.82673,-1.02283 -1.16161,-1.36338 -1.68014,-1.71816l-0.31582,-0.2124l-3.05399,0l-0.07371,-0.12934c-0.0985,-0.17087 -0.11819,-0.50667 -0.0788,-1.36812c0.10358,-2.36722 0.36983,-4.83648 0.57699,-5.36213c0.1309,-0.32749 0.32345,-0.54345 0.6488,-0.71906c0.85087,-0.46039 2.57041,-0.27647 4.97815,0.53396c1.57148,0.52921 3.10801,1.30879 3.79875,1.92581c0.40923,0.36428 0.43656,0.42361 1.62104,3.72703c0.44927,1.24828 0.82164,2.25687 0.82673,2.24737c0.0197,-0.03678 -0.2097,-0.71432 -0.8191,-2.42299c-1.17686,-3.28919 -1.40372,-3.80535 -1.86252,-4.25625c-0.42893,-0.42361 -1.86252,-1.16522 -3.24399,-1.68138c-1.05803,-0.39157 -2.29653,-0.74636 -2.91102,-0.83416c-0.40224,-0.05577 -1.83265,-0.05102 -2.12178,0.00475c-0.36983,0.07357 -1.08536,0.318 -1.52954,0.52565c-1.19402,0.55294 -2.26476,1.44644 -3.15503,2.63894c-0.24401,0.32749 -0.50328,0.7511 -0.91505,1.49271c-0.17793,0.318 -0.34505,0.59922 -0.36983,0.62177c-0.03431,0.03204 -0.12328,0.02729 -0.28341,-0.01899c-0.28151,-0.07357 -2.04235,-0.13408 -2.09446,-0.06882c-0.02732,0.03678 -0.02224,0.11035 0.0197,0.42835c0.02987,0.20765 0.05211,0.4509 0.05211,0.53396c0,0.17561 0.01462,0.18392 0.0985,0.05577c0.24147,-0.36428 0.66596,-0.81518 0.8388,-0.89349c0.09405,-0.04153 0.26626,0.19816 0.49311,0.67753c0.39208,0.82467 0.83626,2.01243 1.14699,3.06374c0.20462,0.69059 0.25672,0.77839 0.46134,0.81992c0.28595,0.05933 0.27896,0.06882 0.42448,-0.51141c0.14552,-0.58973 0.17793,-0.69533 0.19953,-0.65855c0.00763,0.01899 0.08134,0.49243 0.16268,1.05961c0.34315,2.40875 1.09044,6.57837 1.34716,7.5217l0.07371,0.27647l0.03686,-0.1151c0.38,-1.15572 0.3603,-1.05012 0.41432,-2.11448c0.07625,-1.51051 0.35268,-3.07204 0.72505,-4.12216c0.16013,-0.44734 0.50074,-1.0691 0.6685,-1.22099c0.35522,-0.32275 0.78479,-0.06882 1.21118,0.71432c0.63863,1.17946 1.04087,3.18714 1.57656,7.90022c0.44164,3.90146 0.58716,4.91005 0.83372,5.82727c0.28151,1.04537 0.5503,1.38711 1.35161,1.70392c1.42088,0.55769 4.42086,0.81992 9.59345,0.82467c2.41282,0.00475 2.49416,0 3.03175,-0.10086c1.3694,-0.26223 2.05506,-0.63126 2.47954,-1.34558c0.42703,-0.71432 0.81148,-2.82405 0.95699,-5.22805c0.03686,-0.6538 0.03686,-2.58436 -0.00254,-3.17884l0,-0.00237zm-25.02419,-10.26269c-0.06672,0.07831 -0.62402,-1.29455 -0.59923,-1.47373c0.05211,-0.38682 0.65642,-1.55204 1.1273,-2.16906c0.17284,-0.22545 0.3603,-0.46039 0.41686,-0.51616c0.0591,-0.05933 0.11565,-0.0973 0.12582,-0.08306c0.02732,0.02729 0.02987,0.01899 -0.34759,1.42389c-0.17284,0.63126 -0.39716,1.52 -0.50328,1.97209c-0.10612,0.4509 -0.20462,0.82942 -0.21987,0.84721l0,-0.00119zm3.22938,-3.00322c-0.1506,1.76444 -0.4194,3.63448 -0.5897,4.10911c-0.11375,0.31326 -0.15759,0.34529 -0.4391,0.318c-0.4982,-0.05102 -1.21372,-0.40581 -1.717,-0.86145c-0.3082,-0.27647 -0.31836,-0.30851 -0.21987,-0.84721c0.09595,-0.52921 0.46134,-2.14177 0.6685,-2.94864c0.23194,-0.91722 0.33298,-1.20675 0.44927,-1.2993c0.12328,-0.09255 0.69074,-0.32275 0.93221,-0.37258c0.27642,-0.05933 0.29358,-0.05933 0.53759,-0.00949c0.23957,0.05102 0.34315,0.12934 0.39208,0.29071c0.04702,0.14714 0.03686,1.00384 -0.01462,1.62205l0.00064,-0.00119zm3.02921,7.70206c-0.01462,0.00949 -0.09151,-0.20765 -0.1703,-0.47938c-0.18238,-0.63126 -0.33044,-1.07385 -0.3603,-1.07385c-0.01207,0 -0.0394,0.05102 -0.06164,0.1151c-0.02224,0.06408 -0.05211,0.1151 -0.06418,0.1151c-0.01462,0 -0.10866,-0.14714 -0.21224,-0.32749c-0.10358,-0.17917 -0.24656,-0.41411 -0.31836,-0.52091c-0.07181,-0.10086 -0.1309,-0.2124 -0.1309,-0.23969c0,-0.08306 0.23957,-0.46988 0.38254,-0.62177c0.06672,-0.07357 0.14298,-0.13408 0.16522,-0.13408s0.07371,0.07357 0.11565,0.17087l0.07371,0.16612l0.1112,-0.10561c0.09151,-0.09255 0.11565,-0.10086 0.14806,-0.05102c0.10866,0.17087 0.29612,1.18895 0.33552,1.82851c0.03177,0.52565 0.02478,1.13318 -0.01462,1.15572l0.00064,0.00237zm16.16278,6.32919c-0.03177,0.11035 -0.07625,0.35953 -0.09595,0.55294c-0.21987,2.00413 -1.14954,3.35326 -2.7261,3.95248c-0.55984,0.21596 -0.83626,0.24918 -1.86506,0.2207c-0.82164,-0.01899 -0.95699,-0.03204 -1.33445,-0.14239c-0.75238,-0.2124 -1.28743,-0.44259 -1.87459,-0.79738c-0.99893,-0.60753 -1.53716,-1.17471 -2.02265,-2.14652c-0.39208,-0.78314 -0.68057,-1.68612 -0.84134,-2.64844c-0.04702,-0.28122 -0.0985,-0.51616 -0.1112,-0.51616s-0.08642,0.07357 -0.16013,0.16137s-0.1506,0.16137 -0.1703,0.16137c-0.03431,0 -0.03431,-0.01899 0.00254,-0.14239c0.09595,-0.35004 0.36284,-0.70957 0.6291,-0.84247c0.21987,-0.1151 0.54776,0.01899 0.61448,0.24918c0.02224,0.07831 0.01207,0.08781 -0.0788,0.10086l-0.10612,0.01424l0.14806,0.17917c0.64117,0.78789 2.09446,1.5022 3.78667,1.8653c0.9176,0.19816 1.1076,0.2124 2.60282,0.2124c1.22134,0 1.52191,-0.01424 1.87459,-0.08306c0.70091,-0.13764 1.3173,-0.32275 1.71954,-0.51616l0.06926,-0.03204l-0.0591,0.19816l-0.00127,-0.00119zm2.24951,-2.51079c-0.08134,0.15663 -0.23957,0.18867 -1.1273,0.24443c-0.67867,0.04153 -0.70535,0.04153 -0.7994,-0.04628c-0.14552,-0.14239 -0.30311,-0.43785 -0.37492,-0.70008c-0.08896,-0.34055 -0.08134,-0.45564 0.04448,-0.64431c0.20462,-0.318 0.84643,-0.9813 1.16415,-1.21149c0.25927,-0.18867 0.42194,-0.12934 0.60432,0.2124c0.2294,0.42835 0.54014,1.48797 0.54776,1.87004c0.00254,0.11984 -0.01462,0.19341 -0.0591,0.27647l0,-0.00119z" class="cls-5"/>
   <path stroke="null" id="svg_106" fill="#fff" stroke-width="0px" d="m26.85323,20.34311c-0.31074,0.18867 -0.81148,0.39157 -1.27027,0.51616c-0.34315,0.09255 -0.43402,0.0973 -1.7888,0.07831l-1.42596,-0.01899l-0.50582,-0.14239c-1.49268,-0.42835 -2.66446,-1.05961 -3.59921,-1.93886c-0.08134,-0.07831 -0.15569,-0.14239 -0.16268,-0.14239c-0.04194,0 0.17793,0.56244 0.42703,1.0869c0.47596,1.01808 1.31475,1.80122 2.52148,2.36722c0.97924,0.46039 1.8085,0.64906 2.83667,0.64906c0.82673,0.00475 1.45519,-0.11984 2.03536,-0.39632c0.41177,-0.19341 0.9176,-0.58973 1.16924,-0.91248l0.10612,-0.13764l-0.01017,-0.50192c-0.01462,-0.69059 -0.01716,-0.69533 -0.33298,-0.50667z" class="cls-4"/>
   <path stroke="null" id="svg_107" fill="#3b80a6" stroke-width="0px" d="m8.91626,2.80196c-0.31074,-0.16137 -1.52954,0.11984 -1.64074,0.38208c-0.16776,0.40106 -1.01863,4.03554 -0.99893,4.27879c0.02478,0.318 1.02372,0.90773 1.78372,1.05012c0.29866,0.05577 0.3209,0.04153 0.40733,-0.27647c0.19,-0.70957 0.59224,-4.08182 0.59224,-4.98006c0,-0.29902 -0.02987,-0.39632 -0.14298,-0.45564l-0.00064,0.00119z" class="cls-3"/>
   <path stroke="null" id="svg_108" fill="#fff" stroke-width="0px" d="m24.56369,19.1767c-1.56639,0 -1.6776,-0.00475 -2.13386,-0.10561c-1.45328,-0.318 -2.5558,-0.74636 -3.31771,-1.28506c-0.38254,-0.27173 -0.6094,-0.48412 -0.90806,-0.86145c-0.19508,-0.23969 -0.26181,-0.30376 -0.33298,-0.29902c-0.12836,0.00475 -0.20207,0.07831 -0.20207,0.20765c0,0.2029 0.19254,1.13318 0.26181,1.26726c0.13599,0.26223 0.85342,0.87925 1.51492,1.30405c1.14954,0.73686 2.45476,1.16522 3.89279,1.27082c0.69328,0.05102 1.99342,-0.01424 2.40011,-0.1151c0.59479,-0.15663 1.14,-0.39632 1.29506,-0.58024c0.0985,-0.11035 0.2294,-0.566 0.2491,-0.86145l0.01207,-0.2207l-0.25418,0.07831c-0.59224,0.18867 -0.77462,0.2029 -2.477,0.2029l0,-0.00237z" class="cls-4"/>
   <path stroke="null" id="svg_109" fill="#f7ee1d" stroke-width="0px" d="m11.6843,9.43966c-0.07181,0.12459 -0.14044,0.08306 -0.20716,-0.12459c-0.0591,-0.17087 -0.10358,-0.18867 -0.19763,-0.07831c-0.11565,0.14239 -0.27134,0.38682 -0.27134,0.42835c0,0.05102 0.45626,0.78314 0.48612,0.78314c0.01207,0 0.0394,-0.06408 0.0591,-0.14714c0.0197,-0.07831 0.04702,-0.15188 0.06164,-0.16137c0.02732,-0.01899 0.32789,0.81043 0.42703,1.16996c0.05401,0.20765 0.10104,0.29071 0.10104,0.18392c0,-0.318 -0.17539,-1.61256 -0.26181,-1.93056c-0.06672,-0.24443 -0.11375,-0.27173 -0.19763,-0.12459l0.00064,0.00119z" class="cls-2"/>
   <path stroke="null" id="svg_110" fill="#3b80a6" stroke-width="0px" d="m3.91587,21.78954c-0.07371,-0.11035 -0.0985,-0.11984 -0.17539,-0.05102c-0.10358,0.0973 -0.1506,0.36902 -0.13789,0.81518c0.00508,0.19341 0.14298,0.46988 0.23194,0.46988c0.11375,0 0.21733,-0.29902 0.21733,-0.62177c0,-0.26698 -0.04957,-0.48412 -0.13599,-0.61227z" class="cls-3"/>
   <path stroke="null" id="svg_111" fill="#fff" stroke-width="0px" d="m29.1326,14.10528c-0.37238,0.35953 -0.54014,0.5482 -0.67867,0.75585c-0.09405,0.13764 -0.10612,0.17917 -0.09405,0.29427c0.01716,0.16612 0.14044,0.50192 0.2294,0.636c0.06418,0.09255 0.08388,0.0973 0.83626,0.08306c0.42448,-0.00949 0.7797,-0.02729 0.78669,-0.04628c0.04194,-0.07831 -0.30565,-1.09165 -0.55729,-1.62561c-0.20716,-0.44259 -0.17284,-0.43785 -0.52298,-0.0973l0.00064,0z" class="cls-4"/>
   <path stroke="null" id="svg_112" fill="#f7ee1d" stroke-width="0px" d="m29.99365,13.91187c-0.12328,-0.21596 -0.14552,-0.23969 -0.24656,-0.23969c-0.0788,0 -0.11375,0.01899 -0.11375,0.05933c0,0.03678 0.07181,0.24443 0.16013,0.46039c0.20462,0.50667 0.44164,1.17946 0.49565,1.4144c0.04957,0.2029 0.10612,0.26223 0.18238,0.18392c0.07181,-0.06882 0.06164,-0.23969 -0.03431,-0.64906c-0.10866,-0.46988 -0.27896,-0.93502 -0.44418,-1.23048l0.00064,0.00119z" class="cls-2"/>
   <path stroke="null" id="svg_113" fill="#fff" stroke-width="0px" d="m12.96665,29.92352c0.01462,-0.2124 0.02224,-0.2302 0.07181,-0.19816c0.13599,0.07831 0.15759,0.07357 0.23448,-0.04628c0.04448,-0.06882 0.0788,-0.16137 0.0788,-0.20765s-0.04194,-0.18392 -0.09405,-0.30851c-0.12328,-0.28596 -0.15314,-0.39632 -0.15314,-0.53871s-0.01462,-0.14714 -0.12328,-0.00475c-0.12074,0.16137 -0.14298,0.26698 -0.19763,0.94451c-0.02732,0.33224 -0.0591,0.64431 -0.07371,0.69059c-0.05656,0.19341 -0.07371,0.07831 -0.07371,-0.46039s0,-0.55294 -0.0591,-0.55294c-0.03177,0 -0.1506,0.08781 -0.26371,0.19341c-0.15569,0.15188 -0.2097,0.22545 -0.21478,0.29902c-0.01017,0.12934 0.03177,0.13764 0.16013,0.03678c0.10104,-0.07831 0.20462,-0.09255 0.20462,-0.02254c0,0.02254 -0.0591,0.11035 -0.13345,0.18392c-0.14298,0.15188 -0.24401,0.32749 -0.1506,0.25749c0.08134,-0.05933 0.2097,-0.08781 0.2097,-0.05102c0,0.09255 -0.09405,0.21596 -0.21478,0.28122c-0.11819,0.06408 -0.13345,0.08781 -0.15759,0.25393c-0.04702,0.28596 -0.01017,0.31326 0.20462,0.15663c0.0985,-0.07357 0.30311,-0.25393 0.45371,-0.40581l0.27642,-0.27173l0.01462,-0.2302l0.00064,0.00119z" class="cls-4"/>
   <path stroke="null" id="svg_114" fill="#fff" stroke-width="0px" d="m13.44324,27.72242c-0.06418,0.10561 -0.10866,0.21596 -0.0985,0.24443c0.00763,0.02254 0.0394,0.17917 0.07181,0.35004l0.05656,0.29902l-0.04957,0.15188c-0.05656,0.17087 -0.04448,0.41411 0.02224,0.46039c0.04957,0.03678 0.35014,-0.54345 0.42703,-0.81992c0.05211,-0.19341 0.05211,-0.2029 0.00763,-0.35479c-0.0394,-0.13408 -0.05401,-0.15188 -0.11565,-0.12934c-0.0591,0.02254 -0.07625,0.00475 -0.1112,-0.1151c-0.09151,-0.30851 -0.08642,-0.30376 -0.2097,-0.08781l-0.00064,0.00119z" class="cls-4"/>
   <path stroke="null" id="svg_115" fill="#3b80a6" stroke-width="0px" d="m6.6318,4.00871c0.04448,-0.17917 0.07371,-0.33224 0.06164,-0.33224c-0.01017,0 -0.14552,0.19341 -0.30121,0.4331c-0.31836,0.48887 -0.83117,1.45118 -0.89536,1.68138q-0.04194,0.15188 0.0394,0.40581c0.10612,0.32749 0.28595,0.7511 0.31836,0.7511c0.01207,0 0.07625,-0.2124 0.14044,-0.47463c0.06164,-0.25749 0.21224,-0.84247 0.33298,-1.2993c0.12074,-0.45564 0.25672,-0.9813 0.30311,-1.16522l0.00064,0z" class="cls-3"/>
   <path stroke="null" id="svg_116" fill="#fff" stroke-width="0px" d="m11.66714,29.86419c-0.0788,0.12934 -0.1703,0.14714 -0.21478,0.04628c-0.02224,-0.05102 -0.06672,-0.06882 -0.14552,-0.05933l-0.11375,0.01424l0,1.24353l0.14552,0.03204c0.21987,0.05102 0.23957,0.01899 0.45117,-0.73686l0.18492,-0.6538l-0.12074,0c-0.09151,0.00475 -0.13599,0.02729 -0.18746,0.1151l0.00064,-0.00119zm-0.17793,0.83891c-0.05211,0.11035 -0.06418,0.11984 -0.08642,0.05933c-0.02732,-0.07831 -0.03177,-0.32275 -0.01017,-0.4331c0.01716,-0.07831 0.10104,-0.0973 0.15569,-0.03204c0.04702,0.05577 0.0197,0.23969 -0.0591,0.40581z" class="cls-4"/>
   <path stroke="null" id="svg_117" fill="#fff" stroke-width="0px" d="m14.17782,27.1232c0.05211,0.10561 0.1112,0.11984 0.1112,0.02729s-0.02987,-0.12459 -0.26371,-0.318c-0.1112,-0.09255 -0.21224,-0.17087 -0.22177,-0.17087s-0.04448,0.08306 -0.07625,0.18867l-0.0591,0.18867l0.06926,0.18867c0.1309,0.37258 0.25927,0.67753 0.28341,0.67753c0.01462,0 0.04702,-0.0973 0.07625,-0.21596c0.04702,-0.19816 0.04702,-0.2207 0.01017,-0.36902c-0.02224,-0.08306 -0.0394,-0.18392 -0.0394,-0.2207c0,-0.0973 0.0591,-0.08306 0.1112,0.02254l-0.00127,0.00119z" class="cls-4"/>
   <path stroke="null" id="svg_118" fill="#ee3f21" stroke-width="0px" d="m11.894,18.04827c0.19953,-0.00475 0.20716,-0.00949 0.13599,-0.06408c-0.04194,-0.03678 -0.1309,-0.08306 -0.19763,-0.11035c-0.17983,-0.07357 -0.54522,-0.10086 -0.71298,-0.05577c-0.46134,0.11984 -0.97924,0.80094 -1.30268,1.71816c-0.16776,0.47463 -0.23957,0.73212 -0.33298,1.23878c-0.13599,0.71432 -0.16522,1.10114 -0.16522,2.17855c0.00254,0.89349 0.00763,1.00384 0.06672,1.45118c0.16268,1.202 0.4194,2.08719 0.8191,2.80032c0.33298,0.59922 0.70281,0.93502 1.12221,1.02283c0.50074,0.10561 0.92522,-0.14714 1.34462,-0.80094c0.13345,-0.2124 0.46642,-0.90773 0.44927,-0.93977c-0.00763,-0.00949 -0.08134,0.0973 -0.16776,0.24443c-0.30121,0.50667 -0.74475,0.79738 -1.12475,0.73686c-0.65897,-0.10086 -1.2582,-0.93502 -1.60579,-2.22483c-0.20462,-0.75585 -0.29612,-1.4322 -0.31582,-2.33518c-0.01716,-0.77365 0.0197,-1.28506 0.14552,-1.99463c0.31074,-1.7502 1.02372,-2.86083 1.84282,-2.86558l-0.00064,0z" class="cls-5"/>
   <path stroke="null" id="svg_119" fill="#fff" stroke-width="0px" d="m14.91304,28.35842c-0.3082,0.87095 -0.68311,1.59832 -1.13492,2.20228c-0.21987,0.29427 -0.7079,0.79263 -0.87566,0.89349c-0.05211,0.02729 -0.0985,0.07357 -0.10612,0.0973c-0.02732,0.07357 0.3406,-0.19341 0.58208,-0.42835c0.62147,-0.60397 1.3173,-1.83801 1.64074,-2.91542c0.04957,-0.16612 0.08388,-0.31326 0.0788,-0.32275c-0.00508,-0.01424 -0.08896,0.2029 -0.18492,0.47463l0,-0.00119z" class="cls-4"/>
   <path stroke="null" id="svg_120" fill="#ee3f21" stroke-width="0px" d="m2.13215,13.71371l-0.01462,-0.23969c-0.02732,-0.37733 -0.23194,-2.07769 -0.30121,-2.47401c-0.11819,-0.70957 -0.27896,-1.25777 -0.40733,-1.40016c-0.08896,-0.0973 -0.1506,-0.09255 -0.2294,0.02254c-0.08388,0.11984 -0.22177,0.62651 -0.27388,0.9991c-0.1112,0.80568 -0.11375,3.02695 -0.00254,3.98927c0.0591,0.52091 0.07625,0.62177 0.0985,0.57549c0.00254,-0.00949 0.05401,-0.17087 0.11375,-0.35953c0.21987,-0.70957 0.3997,-0.92078 0.92268,-1.0869l0.09405,-0.02729l0,0.00119z" class="cls-5"/>
   <path stroke="null" id="svg_121" fill="#ee3f21" stroke-width="0px" d="m4.7642,21.72903c0.18238,0.28122 0.33552,0.50192 0.3406,0.49243c0.01207,-0.01899 -0.19763,-0.95401 -0.25418,-1.13318c-0.02732,-0.08781 -0.07371,-0.17087 -0.10866,-0.18392c-0.30121,-0.15663 -0.35268,-0.2029 -0.43147,-0.35004c-0.05211,-0.0973 -0.08642,-0.20765 -0.08642,-0.27173c0,-0.14714 -0.04448,-0.14714 -0.07181,-0.00475c-0.01207,0.05933 -0.05401,0.14714 -0.08896,0.19816l-0.06672,0.08781l0.21733,0.32749c0.12074,0.17917 0.36729,0.55769 0.5503,0.83891l0,-0.00119z" class="cls-5"/>
   <path stroke="null" id="svg_122" fill="#ee3f21" stroke-width="0px" d="m19.51882,10.14924c-0.03431,-0.07831 -0.07371,-0.09255 -0.07371,-0.02729c0,0.02254 0.01716,0.05577 0.0394,0.06882c0.0591,0.04153 0.06926,0.03204 0.03431,-0.04153z" class="cls-5"/>
   <path stroke="null" id="svg_123" fill="#ee3f21" stroke-width="0px" d="m1.66827,18.42204c-0.04957,0.64075 -0.03686,2.1833 0.02732,3.08154c0.08642,1.22573 0.24656,2.48232 0.38254,3.01746c0.09595,0.36902 0.21733,0.66804 0.27134,0.66804c0.04702,0 0.0985,-0.17561 0.14552,-0.48412c0.05656,-0.35953 0.08642,-2.03616 0.05656,-3.03051c-0.05401,-1.81071 -0.31582,-3.84688 -0.53505,-4.16844c-0.17539,-0.25749 -0.27388,0 -0.34759,0.91722l-0.00064,-0.00119z" class="cls-5"/>
   <path stroke="null" id="svg_124" fill="#f7ee1d" stroke-width="0px" d="m0.73098,14.29394c-0.06164,-0.50192 -0.06926,-0.6538 -0.0788,-1.6351c-0.01017,-1.17471 0.00763,-1.52475 0.1112,-2.14177c0.11565,-0.68228 0.24147,-1.04063 0.43147,-1.22573c0.12074,-0.1151 0.18746,-0.11035 0.29612,0.02729c0.19,0.23969 0.35268,0.79263 0.4982,1.69087c0.17539,1.09165 0.31836,2.39095 0.61893,5.70268c0.21987,2.3957 0.22432,2.45977 0.28341,2.58911l0.04702,0.10561l0.00254,-0.10086c0,-0.05933 -0.02224,-0.36428 -0.04957,-0.67753c-0.02732,-0.31326 -0.05211,-0.77365 -0.05656,-1.01808l-0.00508,-0.44734l0.28341,-0.00475l0.28341,-0.00949l0.00763,-0.18867l0.00763,-0.18867l-0.16776,-0.10086c-0.20462,-0.12459 -0.31074,-0.27173 -0.38509,-0.52565c-0.05211,-0.18392 -0.05401,-0.23969 -0.05211,-1.34558c0.00254,-1.98514 0.14044,-3.0673 0.50328,-3.94774c0.33806,-0.81518 0.92014,-1.0964 1.38148,-0.6633c0.12328,0.1151 0.21733,0.39157 0.23957,0.71432c0.00763,0.10561 0.0197,0.18867 0.02987,0.18867c0.00763,-0.00475 0.05401,-0.11035 0.10104,-0.23969c0.09595,-0.26698 0.22432,-0.4509 0.31074,-0.4509c0.03177,0 0.06418,-0.02254 0.07181,-0.04628c0.0197,-0.06408 -0.18492,-0.77839 -0.45117,-1.57577c-0.45117,-1.34558 -1.0485,-2.66268 -1.20355,-2.66268c-0.14552,0 -0.59923,0.49243 -0.88074,0.96231c-0.0788,0.12934 -0.15569,0.22545 -0.16776,0.2124c-0.01207,-0.01899 -0.02224,-0.12934 -0.02224,-0.24918c0,-0.29071 -0.06672,-0.95401 -0.11375,-1.11894c-0.03177,-0.11984 -0.04702,-0.12934 -0.17793,-0.12459c-0.15569,0.00475 -0.24401,0.04153 -0.53505,0.2124c-0.29612,0.17087 -0.47087,0.36428 -0.67867,0.7511c-0.22432,0.41411 -0.34315,0.74636 -0.47341,1.30405c-0.3603,1.55204 -0.38509,3.84688 -0.06672,6.22833c0.06926,0.51141 0.19,1.18895 0.23194,1.29455c0.0197,0.05102 0.00254,-0.0973 -0.03686,-0.32749c-0.03686,-0.2302 -0.10104,-0.6633 -0.13789,-0.96706z" class="cls-2"/>
   <path stroke="null" id="svg_125" fill="#f7ee1d" stroke-width="0px" d="m4.22407,17.29361l0,0.23969l0.1309,0.05577c0.06926,0.03204 0.20207,0.06408 0.29104,0.07831l0.16268,0.02254l0.02987,-0.14714c0.0591,-0.32275 0.06164,-0.32275 -0.26181,-0.4331c-0.1112,-0.04153 -0.2294,-0.08306 -0.25927,-0.0973c-0.08134,-0.03678 -0.09405,0.00475 -0.09405,0.28122l0.00064,0z" class="cls-2"/>
   <path stroke="null" id="svg_126" fill="#ee3f21" stroke-width="0px" d="m0.70873,7.09974c0.17284,-0.46514 0.47087,-1.00384 0.6685,-1.19725c0.14806,-0.14714 0.5179,-0.37258 0.78669,-0.48412c0.1112,-0.04628 0.4194,-0.05933 1.20863,-0.05577c0.92522,0 1.09807,0.01424 1.34462,0.08781c0.15569,0.05102 0.29104,0.09255 0.30121,0.09255c0.00763,0 0.22432,-0.36902 0.48104,-0.81518c0.25418,-0.44734 0.56238,-0.96231 0.68566,-1.15216l0.21987,-0.3358l-0.1703,-0.03204c-0.09595,-0.01424 -0.45626,-0.05102 -0.80194,-0.07831c-0.75238,-0.05933 -0.9373,-0.11035 -1.66997,-0.43785c-0.64372,-0.28596 -0.87311,-0.37258 -1.16669,-0.44259c-0.11565,-0.02729 -0.4194,-0.05933 -0.67867,-0.07357c-0.59923,-0.03204 -0.61448,-0.01899 -0.82164,0.67279c-0.21224,0.71432 -0.42448,2.41824 -0.48612,3.89197c-0.00763,0.2029 -0.0197,0.4509 -0.02732,0.55294c-0.01462,0.18392 -0.01207,0.17917 0.12582,-0.19341l0.00064,0z" class="cls-5"/>
   <path stroke="null" id="svg_127" fill="#f7ee1d" stroke-width="0px" d="m5.603,13.81101c-0.08388,0 -0.09405,0.08781 -0.02224,0.20765c0.16522,0.28122 0.1703,1.24353 0.02224,3.65228l-0.02987,0.47938l0.24401,0.45564c0.24656,0.46988 0.6291,1.10114 0.66341,1.10114c0.01017,0 0.01207,-0.0973 0.00254,-0.2207c-0.06418,-0.92078 -0.15314,-3.3853 -0.12328,-3.46836c0.01017,-0.03204 0.33044,0.5482 0.77462,1.39067l0.76,1.44644l0.05401,-0.2207l0.05211,-0.2207l-0.15759,-0.70008c-0.37238,-1.62561 -0.88582,-4.45915 -1.29251,-7.14912c-0.0591,-0.40581 -0.11565,-0.74636 -0.12074,-0.75585c-0.01462,-0.02729 -0.08642,0.318 -0.10104,0.49243c-0.01207,0.12934 -0.00508,0.15663 0.0394,0.17917c0.03431,0.01424 0.05211,0.05933 0.05211,0.13408c0,0.12459 -0.16522,0.9991 -0.31836,1.67663c-0.3082,1.38711 -0.35268,1.52 -0.4982,1.52l-0.00064,0z" class="cls-2"/>
   <path stroke="null" id="svg_128" fill="#f7ee1d" stroke-width="0px" d="m5.32722,10.67845c-0.03686,0.02254 -0.08896,0.08781 -0.11565,0.14714c-0.13345,0.29902 -0.42194,1.60306 -0.57509,2.59385c-0.16268,1.05012 -0.28341,2.21534 -0.25164,2.45028c0.01716,0.14239 0.06926,0.17561 0.38699,0.24443l0.26626,0.05933l-0.01462,0.32749c-0.0394,0.94451 -0.08388,1.24353 -0.20462,1.37287c-0.0591,0.06882 -0.08642,0.06408 -0.29866,-0.01424c-0.36284,-0.13408 -0.33044,-0.18392 -0.31328,0.49718c0.01716,0.65855 0.06672,1.22099 0.12836,1.44169c0.05211,0.18867 0.2294,0.34055 0.51535,0.43785c0.2688,0.09255 0.32789,0.07357 0.37492,-0.14714c0.19953,-0.88875 0.44164,-5.20551 0.32345,-5.73472c-0.0394,-0.17917 -0.12074,-0.28122 -0.26371,-0.3358c-0.17284,-0.05933 -0.17793,-0.06882 -0.16013,-0.19816c0.00763,-0.06882 0.04957,-0.32749 0.08896,-0.58024l0.07625,-0.45564l0.25418,0.03204c0.29358,0.03678 0.30311,0.02729 0.40224,-0.38682c0.10358,-0.44259 0.27642,-1.33134 0.29104,-1.51526l0.01462,-0.17917l-0.17983,-0.02729c-0.36729,-0.05102 -0.67867,-0.05933 -0.74475,-0.02729l-0.00064,-0.00237z" class="cls-2"/>
   <path stroke="null" id="svg_129" fill="#f7ee1d" stroke-width="0px" d="m3.09677,17.38497l-0.15569,-0.03678l0,0.18867c0,0.28122 0.07181,1.24353 0.1112,1.50576c0.0197,0.12934 0.0591,0.29071 0.08642,0.35479c0.06926,0.16137 0.3209,0.30851 0.59479,0.34055c0.2097,0.02729 0.21478,0.02254 0.25672,-0.09255c0.03177,-0.09255 0.04702,-0.29071 0.06418,-0.82467c0.01207,-0.38682 0.03431,-1.04537 0.04702,-1.46423c0.05211,-1.4144 0.22177,-2.96169 0.50074,-4.49119l0.17539,-0.96706l0.01017,-0.6538l0.01017,-0.6538l-0.10358,-0.13764c-0.05401,-0.07357 -0.15759,-0.15663 -0.22432,-0.18392c-0.25418,-0.10086 -0.57,-0.02254 -0.76445,0.18867c-0.35268,0.38682 -0.66596,1.53899 -0.73776,2.7137c-0.02987,0.46988 -0.02987,1.64934 -0.00254,1.92581c0.0394,0.36902 0.15314,0.5482 0.42703,0.68584l0.15569,0.07831l0.00763,0.35953c0.00508,0.19816 -0.00508,0.50667 -0.01716,0.68584c-0.03686,0.50667 -0.09151,0.566 -0.4391,0.47938l-0.00254,-0.00119zm0.31328,-4.03554c0,-0.36428 0.15314,-0.91722 0.28151,-1.01334c0.0788,-0.05933 0.10104,-0.05577 0.17284,0.05102c0.04957,0.06882 0.06418,0.13408 0.06418,0.26223c0,0.22545 -0.10358,0.93502 -0.15759,1.09165c-0.0394,0.11035 -0.05656,0.12459 -0.13345,0.0973c-0.12836,-0.03678 -0.22686,-0.24918 -0.22686,-0.48887l-0.00064,0z" class="cls-2"/>
   <path stroke="null" id="svg_130" fill="#f7ee1d" stroke-width="0px" d="m3.70617,13.49301c0.03431,-0.12459 0.03177,-0.17087 -0.01462,-0.25393c-0.0197,-0.04153 -0.05401,-0.07357 -0.07181,-0.07357c-0.0394,0 -0.1112,0.12459 -0.1112,0.18867c0,0.20765 0.14806,0.30851 0.19763,0.13764l0,0.00119z" class="cls-2"/>
   <path stroke="null" id="svg_131" fill="#3b80a6" stroke-width="0px" d="m2.94172,21.51307c0,0.4509 0.10866,0.75585 0.26181,0.71906c0.11565,-0.02254 0.1703,-0.2207 0.17983,-0.6633l0.00763,-0.38682l-0.0985,-0.18392c-0.19763,-0.36902 -0.35014,-0.14239 -0.35014,0.51616l-0.00064,-0.00119z" class="cls-3"/>
   <path stroke="null" id="svg_132" fill="#ee3f21" stroke-width="0px" d="m2.1868,25.18908c-0.21733,-0.39157 -0.43656,-1.61256 -0.59479,-3.29393c-0.03431,-0.37733 -0.04194,-0.7511 -0.04448,-2.09549c0,-1.60306 0,-1.63985 0.0591,-1.9531c0.06164,-0.34055 0.19953,-0.67279 0.27642,-0.67279c0.06164,0 0.0591,-0.03678 -0.00763,-0.14239c-0.07371,-0.11035 -0.12328,-0.11035 -0.18492,0.01424c-0.07371,0.15188 -0.09595,0.24918 -0.16013,0.68228c-0.05401,0.37258 -0.05656,0.46514 -0.05656,1.91157c0,1.65409 0.01716,1.98989 0.16268,3.2702c0.16522,1.47847 0.40733,2.51079 0.58716,2.51079c0.07181,0 0.06418,-0.04628 -0.03686,-0.2302l0,-0.00119z" class="cls-5"/>
   <path stroke="null" id="svg_133" fill="#3b80a6" stroke-width="0px" d="m3.80721,21.51307l0.10866,-0.03678l-0.20207,-0.19341c-0.11375,-0.10561 -0.2097,-0.19341 -0.21478,-0.19341c-0.00763,0 -0.00508,0.13764 0.00254,0.30851c0.01017,0.22545 0,0.37258 -0.02732,0.52091c-0.06164,0.33224 -0.04194,0.36902 0.03431,0.05933c0.0788,-0.318 0.14044,-0.41411 0.29866,-0.46514z" class="cls-3"/>
  </g>
 </g>
</svg>