<svg width="550" height="285" xmlns="http://www.w3.org/2000/svg" data-name="katman 1">
 <g>
  <title>Layer 1</title>
  <g id="svg_1">
   <text class="cls-6" font-family="Montserrat-Bold, Montserrat" font-size="16.84px" font-weight="700" isolation="isolate" y="654.5" x="208.27" id="svg_2">
    <tspan x="0" y="0" id="svg_3">WW</tspan>
   </text>
   <text class="cls-6" font-family="Montserrat-Bold, Montserrat" font-size="16.84px" font-weight="700" isolation="isolate" y="654.5" x="245.75999" id="svg_4">
    <tspan x="0" y="0" id="svg_5">W</tspan>
   </text>
   <text class="cls-6" font-family="Montserrat-Bold, Montserrat" font-size="16.84px" font-weight="700" isolation="isolate" y="654.5" x="263.92001" id="svg_6">
    <tspan x="0" y="0" id="svg_7">.FREES</tspan>
   </text>
   <text class="cls-6" font-family="Montserrat-Bold, Montserrat" font-size="16.84px" font-weight="700" isolation="isolate" y="654.5" x="324.07999" id="svg_8">
    <tspan x="0" y="0" id="svg_9">V</tspan>
   </text>
   <text class="cls-6" font-family="Montserrat-Bold, Montserrat" font-size="16.84px" font-weight="700" isolation="isolate" y="654.5" x="336.23001" id="svg_10">
    <tspan x="0" y="0" id="svg_11">G</tspan>
   </text>
   <text class="cls-6" font-family="Montserrat-Bold, Montserrat" font-size="16.84px" font-weight="700" isolation="isolate" y="654.5" x="348.73999" id="svg_12">
    <tspan x="0" y="0" id="svg_13">D</tspan>
   </text>
   <text class="cls-6" font-family="Montserrat-Bold, Montserrat" font-size="16.84px" font-weight="700" isolation="isolate" y="654.5" x="361.44" id="svg_14">
    <tspan x="0" y="0" id="svg_15">O</tspan>
   </text>
   <text class="cls-6" font-family="Montserrat-Bold, Montserrat" font-size="16.84px" font-weight="700" isolation="isolate" y="654.5" x="374.82001" id="svg_16">
    <tspan x="0" y="0" id="svg_17">WNL</tspan>
   </text>
   <text class="cls-6" font-family="Montserrat-Bold, Montserrat" font-size="16.84px" font-weight="700" isolation="isolate" y="654.5" x="416.28" id="svg_18">
    <tspan x="0" y="0" id="svg_19">O</tspan>
   </text>
   <text class="cls-6" font-family="Montserrat-Bold, Montserrat" font-size="16.84px" font-weight="700" isolation="isolate" y="654.5" x="429.51001" id="svg_20">
    <tspan x="0" y="0" id="svg_21">A</tspan>
   </text>
   <text class="cls-6" font-family="Montserrat-Bold, Montserrat" font-size="16.84px" font-weight="700" isolation="isolate" y="654.5" x="442.51999" id="svg_22">
    <tspan x="0" y="0" id="svg_23">D</tspan>
   </text>
   <text class="cls-6" font-family="Montserrat-Bold, Montserrat" font-size="16.84px" font-weight="700" isolation="isolate" y="654.5" x="455.04001" id="svg_24">
    <tspan x="0" y="0" id="svg_25">.</tspan>
   </text>
   <text class="cls-6" font-family="Montserrat-Bold, Montserrat" font-size="16.84px" font-weight="700" isolation="isolate" y="654.5" x="459.17001" id="svg_26">
    <tspan x="0" y="0" id="svg_27">C</tspan>
   </text>
   <text class="cls-6" font-family="Montserrat-Bold, Montserrat" font-size="16.84px" font-weight="700" isolation="isolate" y="654.5" x="470.62" id="svg_28">
    <tspan x="0" y="0" id="svg_29">OM</tspan>
   </text>
  </g>
  <g id="svg_30">
   <path class="cls-1" d="m204.61,9.3c-4.93,0.54 -16.34,2.29 -21.35,3.3c-18.75,3.8 -33.11,9.05 -48.6,17.9l-4.74,2.68l-8.66,-0.43c-24.65,-1.2 -25.23,-1.24 -37,-4.5c-12.03,-3.3 -16.81,-4.08 -26.24,-4.31c-4.43,-0.12 -9.05,-0.08 -10.29,0.08c-2.17,0.23 -2.41,0.39 -4.89,2.87c-2.06,2.14 -2.99,3.49 -4.74,7.07c-5.01,10.33 -6.64,18.6 -7.22,36.92c-0.27,8.7 -0.5,11.76 -1.13,14.67c-2.17,10.02 -1.86,23.64 0.78,36.1c0.89,4.12 5.09,17.04 6.83,20.96l1.13,2.52l-0.7,4.27c-0.97,5.67 -1.36,27.06 -0.74,36.45c1.24,18.36 5.78,38.39 11.14,49.34c3.26,6.68 6.37,9.47 11.41,10.25c11.57,1.82 45.73,0 51.52,-2.76c6.68,-3.14 13.51,-15.41 14.67,-26.36c0.16,-1.4 0.39,-2.76 0.54,-3.03c0.47,-0.74 16.96,4.08 17.97,5.28c0.27,0.35 0.97,2.48 1.51,4.74c2.72,10.87 9.2,24.15 15.88,32.26c9.43,11.57 20.81,19.06 34.16,22.55c10.13,2.68 27.56,1.79 43.87,-2.21c7.1,-1.75 15.14,-4.39 18.75,-6.13c7.69,-3.77 18.13,-14.36 23.41,-23.84c1.01,-1.79 2.14,-3.38 2.52,-3.49c0.39,-0.16 3.18,-0.16 6.25,0c23.37,1.13 53.34,1.94 99.3,2.68l27.37,0.47l2.14,1.44c4.77,3.22 10.4,5.47 17.66,7.03c3.42,0.78 5.09,0.85 13.78,0.85c10.79,0 16.11,-0.5 23.1,-2.25c6.09,-1.51 13.63,-4.04 15.02,-5.05c0.7,-0.5 2.02,-1.32 2.95,-1.79c5.05,-2.68 14.25,-10.95 18.83,-16.93c10.4,-13.59 15.72,-31.95 14.29,-49.22c-0.85,-10.25 -2.99,-18.25 -8.11,-30.09c-1.59,-3.73 -3.69,-8.89 -4.62,-11.45c-2.17,-5.94 -4.35,-10.33 -7.22,-14.71c-11.34,-17.31 -28.53,-27.52 -53.84,-31.95c-3.61,-0.62 -6.48,-0.7 -24.85,-0.7c-11.41,0 -26.44,0.16 -33.42,0.35c-6.95,0.19 -13.78,0.23 -15.18,0.08l-2.6,-0.27l-6.87,-10.56c-19.68,-30.09 -23.53,-35.56 -29.89,-42.2c-3.96,-4.12 -5.55,-5.12 -12,-7.69c-21.16,-8.39 -62.42,-17.7 -90.65,-20.46c-5.75,-0.58 -27.99,-1.09 -31.25,-0.74l0.02,0.01z" stroke-width="0px" id="svg_31"/>
   <path class="cls-4" d="m179.41,80.65c0.82,0.31 28.22,0.31 38.51,-0.04l8.15,-0.23l-2.29,-1.48c-2.68,-1.75 -5.4,-5.24 -6.37,-8.15c-1.51,-4.58 -0.62,-9.2 2.6,-13.2l1.86,-2.29l-1.67,0.04c-3.84,0.12 -15.64,2.33 -21.43,4c-7.92,2.33 -17.55,6.29 -18.71,7.69c-1.28,1.55 -1.86,13.2 -0.66,13.66l0.01,0z" stroke-width="0px" fill="#fff" id="svg_32"/>
   <path class="cls-4" d="m368.55,90.43c0.19,-0.23 -1.05,-2.33 -3.65,-6.09l-2.06,-2.91l-7.49,-2.41c-14.4,-4.58 -32.42,-9.86 -41.27,-12.11c-4.89,-1.2 -9.59,-2.37 -10.44,-2.48c-1.48,-0.27 -1.51,-0.27 -1.24,0.82c0.66,3.03 0.7,6.64 0.08,8.54c-1.32,3.96 -4.43,7.3 -8.31,8.89l-2.17,0.85l1.36,0.23c0.74,0.12 4.89,0.47 9.28,0.82c10.87,0.85 44.68,3.88 56.25,5.05c5.2,0.54 9.55,0.89 9.67,0.82l-0.01,-0.02z" stroke-width="0px" fill="#fff" id="svg_33"/>
   <path class="cls-4" d="m237.68,79.56l-2.41,1.09l2.91,0.31c3.14,0.27 25.74,1.32 38.04,1.71l7.57,0.27l-1.59,-1.2c-2.33,-1.71 -4.77,-4.31 -5.63,-6.02c-1.79,-3.42 -1.28,-9.59 1.01,-12.89c1.48,-2.14 1.32,-2.45 -1.28,-2.48c-0.7,-0.04 -5.59,-0.89 -10.87,-1.94c-5.28,-1.05 -11.26,-2.14 -13.28,-2.37c-2.02,-0.27 -5.47,-0.58 -7.61,-0.74l-3.92,-0.23l1.63,1.82c4,4.46 5.01,10.95 2.52,15.88c-1.4,2.68 -4.39,5.55 -7.1,6.79l0.01,0z" stroke-width="0px" fill="#fff" id="svg_34"/>
   <path class="cls-2" d="m369.09,94.7c-2.1,-1.4 -3.38,-1.63 -4.62,-0.82c-0.62,0.43 -2.1,0.78 -3.69,0.89c-2.52,0.16 -2.76,0.12 -4.39,-1.05c-2.02,-1.44 -2.52,-1.51 -2.52,-0.23s-1.13,1.51 -5.86,1.2c-3.14,-0.23 -4.04,-0.16 -5.05,0.35c-1.4,0.74 -1.75,0.58 -1.13,-0.58c0.27,-0.5 0.31,-1.01 0.12,-1.2c-0.62,-0.62 -8.27,-2.68 -12.15,-3.26c-4.43,-0.7 -4.54,-0.7 -4.89,-0.16c-0.47,0.78 0.5,1.2 4.15,1.75c5.2,0.78 5.78,0.93 5.55,1.48c-0.12,0.27 0.08,0.74 0.43,1.01c3.22,2.68 -8.39,3.46 -20.19,1.4c-1.71,-0.31 -4.58,-0.66 -6.41,-0.78c-3.26,-0.23 -3.26,-0.19 1.94,0.74c2.87,0.54 8.93,1.71 13.39,2.6c7.65,1.55 8.54,1.67 14.56,1.63c3.53,0 10.17,-0.31 14.75,-0.7c6.02,-0.5 14.52,-0.78 30.55,-0.97c12.23,-0.16 22.32,-0.35 22.44,-0.5c0.16,-0.12 -1.28,-0.58 -3.18,-1.05c-3.42,-0.82 -8.35,-1.24 -22.01,-1.98c-7.1,-0.39 -7.38,-0.35 -8.19,0.39c-1.09,1.01 -1.82,0.97 -3.61,-0.16l0.01,0z" stroke-width="0px" fill="#f7ee1d" id="svg_35"/>
   <path class="cls-5" d="m324.52,94.43c0.54,0.62 1.2,0.82 2.6,0.82c1.01,0 1.98,-0.19 2.1,-0.39c0.16,-0.23 -1.16,-1.09 -3.07,-1.98c-2.02,-0.93 -4.15,-1.63 -5.36,-1.75l-2.06,-0.19l2.52,1.32c1.4,0.74 2.87,1.71 3.26,2.17l0.01,0z" stroke-width="0px" fill="#ee3f21" id="svg_36"/>
   <path class="cls-5" d="m293.97,91.6c0.16,-0.12 0,-0.5 -0.31,-0.82c-0.62,-0.62 -3.69,-1.28 -3.34,-0.7c0.35,0.58 3.34,1.82 3.65,1.51l0,0.01z" stroke-width="0px" fill="#ee3f21" id="svg_37"/>
   <path class="cls-2" d="m322.08,94.74c0.31,-0.08 -0.85,-0.85 -2.56,-1.63c-2.45,-1.16 -3.73,-1.51 -6.02,-1.67c-2.64,-0.16 -2.87,-0.12 -2.41,0.43c1.09,1.28 9.43,3.46 10.99,2.87z" stroke-width="0px" fill="#f7ee1d" id="svg_38"/>
   <path class="cls-3" d="m279.92,74.13c0.66,-0.47 0.7,-0.7 0.27,-1.55c-0.35,-0.78 -0.74,-1.01 -1.63,-1.01c-0.97,0 -1.16,0.16 -1.16,0.93c0,2.14 1.01,2.76 2.52,1.63z" stroke-width="0px" fill="#3b80a6" id="svg_39"/>
   <path class="cls-2" d="m301.7,99.36c0.7,-0.54 0.66,-0.66 -1.51,-2.83l-2.25,-2.29l1.59,-1.28c2.33,-1.86 2.06,-2.76 -1.09,-3.61c-1.32,-0.35 -4.04,-0.93 -5.98,-1.24c-5.12,-0.89 -23.25,-0.7 -24.22,0.27c-0.12,0.12 5.51,0.27 12.54,0.35c13.04,0.16 14.48,0.31 15.02,1.75c0.27,0.66 -0.7,2.68 -1.44,2.95c-0.31,0.12 -1.32,-0.16 -2.25,-0.58c-0.93,-0.43 -2.68,-0.85 -3.84,-0.93c-2.02,-0.19 -2.1,-0.16 -1.36,0.43c1.05,0.85 12.23,7.03 13.24,7.34c0.43,0.12 1.13,0 1.55,-0.31l0,-0.02z" stroke-width="0px" fill="#f7ee1d" id="svg_40"/>
   <path class="cls-5" d="m333.69,43.07c-13.51,-6.99 -56.8,-16.42 -94.72,-20.65c-8.15,-0.89 -34.55,-1.13 -39.48,-0.31c-4.46,0.7 -7.92,1.75 -9.59,2.91c-1.55,1.05 -3.49,3.8 -4.31,6.17c-1.24,3.49 -5.09,24.38 -5.51,30.2l-0.23,2.83l0.93,-0.39c0.5,-0.19 2.52,-1.01 4.43,-1.79c4.77,-2.02 13.86,-5.05 19.1,-6.41c7.69,-2.02 14.01,-2.76 24.96,-2.99c13.28,-0.27 20.3,0.39 34.47,3.22c3.69,0.74 6.87,1.24 7.07,1.13c0.35,-0.23 0.19,-1.86 -0.62,-6.79c-1.01,-6.09 0.62,-4.54 2.21,2.14c1.48,6.13 0.89,5.4 4.62,5.75c18.98,1.71 36.1,5.67 67.51,15.61c14.13,4.43 15.96,4.97 16.23,4.7c0.5,-0.47 -18.21,-27.76 -21.35,-31.13c-1.67,-1.79 -3.14,-2.87 -5.71,-4.19l-0.01,-0.01z" stroke-width="0px" fill="#ee3f21" id="svg_41"/>
   <path class="cls-5" d="m273.9,101.85c-1.86,0 -1.75,0.5 0.23,1.16c1.51,0.5 1.94,0.35 1.59,-0.58c-0.16,-0.39 -0.78,-0.58 -1.82,-0.58z" stroke-width="0px" fill="#ee3f21" id="svg_42"/>
   <path class="cls-3" d="m280.11,63.03c0,0.74 1.82,2.6 2.17,2.21c0.16,-0.12 0.04,-0.78 -0.23,-1.4c-0.82,-1.98 -1.94,-2.45 -1.94,-0.82l0,0.01z" stroke-width="0px" fill="#3b80a6" id="svg_43"/>
   <path class="cls-3" d="m279.96,68.89c-0.35,-0.54 -2.45,-0.58 -2.76,-0.04c-0.39,0.62 0.16,1.16 1.09,1.16c1.13,0 1.98,-0.58 1.67,-1.13l0,0.01z" stroke-width="0px" fill="#3b80a6" id="svg_44"/>
   <path class="cls-5" d="m264.74,89.62l1.75,1.44l6.13,-0.16c7.3,-0.16 6.44,-0.47 18.36,6.48c4.27,2.48 7.96,4.46 8.23,4.39c0.43,-0.16 -3.42,-2.52 -13.74,-8.54c-1.48,-0.82 -2.64,-1.67 -2.64,-1.82c0,-0.5 1.05,-0.82 2.52,-0.82c0.74,0 1.44,-0.19 1.59,-0.43c0.19,-0.31 -2.52,-0.35 -9.78,-0.16l-10.05,0.27l-1.32,-1.36l-1.32,-1.4l1.51,-0.39c0.85,-0.23 3.77,-0.58 6.52,-0.78c2.72,-0.19 5.09,-0.47 5.2,-0.58c0.31,-0.31 -9.47,-0.19 -11.37,0.12c-1.94,0.35 -3.3,1.05 -3.3,1.79c0,0.27 0.78,1.16 1.71,1.94l0,0.01z" stroke-width="0px" fill="#ee3f21" id="svg_45"/>
   <path class="cls-3" d="m278.4,64.85c-0.54,0.58 -0.16,1.71 0.74,2.14c1.28,0.58 2.14,-0.08 1.36,-1.05c-0.7,-0.82 -1.79,-1.4 -2.1,-1.09z" stroke-width="0px" fill="#3b80a6" id="svg_46"/>
   <path class="cls-3" d="m279.53,77c0.78,0.62 1.75,0.23 1.75,-0.78c0,-0.89 -1.2,-1.09 -1.9,-0.23c-0.35,0.39 -0.31,0.62 0.16,1.01l-0.01,0z" stroke-width="0px" fill="#3b80a6" id="svg_47"/>
   <path class="cls-3" d="m222.23,71.41c0.35,-0.43 0.31,-0.58 -0.19,-0.78c-1.4,-0.54 -3.22,0.08 -2.72,0.89c0.39,0.62 2.37,0.54 2.91,-0.12l0,0.01z" stroke-width="0px" fill="#3b80a6" id="svg_48"/>
   <path class="cls-3" d="m221.69,75.06c0.7,0 2.52,-1.67 2.52,-2.33c0,-0.58 -0.43,-0.47 -1.82,0.39c-1.32,0.82 -1.71,1.94 -0.7,1.94z" stroke-width="0px" fill="#3b80a6" id="svg_49"/>
   <path class="cls-3" d="m283.33,61.08l-1.32,0l0.82,1.16c0.47,0.62 1.16,1.16 1.55,1.16c0.85,0 1.32,-1.09 0.74,-1.79c-0.23,-0.31 -1.05,-0.54 -1.79,-0.54l0,0.01z" stroke-width="0px" fill="#3b80a6" id="svg_50"/>
   <path class="cls-5" d="m414.67,97.3c0.39,0.5 1.82,2.21 3.18,3.73c1.32,1.51 2.41,3.11 2.41,3.53c0,1.28 -2.91,4.08 -5.36,5.16c-4.31,1.9 -7.14,2.29 -19.37,2.48c-11.49,0.19 -19.76,-0.16 -29.62,-1.28c-16.27,-1.82 -33.08,-5.05 -48.68,-9.32c-3.46,-0.93 -6.56,-1.71 -6.91,-1.71c-0.39,0 -1.28,0.54 -2.02,1.16c-1.82,1.63 -3.42,2.21 -6.87,2.52l-2.91,0.27l-6.02,-3.69c-3.3,-2.02 -7.88,-4.66 -10.17,-5.9l-4.15,-2.21l-5.78,0.54l-5.78,0.54l-1.9,-1.51c-2.37,-1.9 -4.77,-4.23 -4.77,-4.62c0,-0.19 0.54,-0.66 1.2,-1.05s1.05,-0.82 0.85,-0.93c-0.16,-0.12 -5.36,-0.39 -11.57,-0.62c-6.17,-0.23 -12.38,-0.5 -13.78,-0.62l-2.52,-0.19l5.24,2.64c6.06,3.03 9.98,5.36 17.97,10.64c10.71,7.07 9.59,6.6 31.33,13.32c4.58,1.4 16.38,5.2 26.2,8.39c9.82,3.22 19.26,6.17 20.96,6.56c4.27,1.01 9.43,1.48 22.32,1.94c28.69,1.05 33.39,1.24 41.93,1.79c5.01,0.31 14.91,1.09 21.93,1.75c8.93,0.85 15.96,1.28 23.18,1.4l10.37,0.19l4.58,-2.41c5.43,-2.83 10.95,-6.44 14.64,-9.59c3.46,-2.91 4.31,-4.04 3.96,-5.32c-1.24,-4.93 -16.89,-13.28 -31.76,-16.89c-9.51,-2.33 -17.04,-3.14 -28.61,-3.14l-6.83,0l1.2,0.74c0.66,0.39 1.51,1.16 1.94,1.71l-0.01,0zm-136.57,5.67c-0.23,2.06 -3.65,2.48 -6.44,0.82c-1.51,-0.93 -1.67,-2.37 -0.35,-3.3c2.06,-1.51 7.03,0.31 6.79,2.48zm62.7,20.77c-1.44,-1.09 -1.51,-2.83 -0.12,-3.57c2.06,-1.05 6.6,0.47 6.6,2.21c0,2.1 -4.27,2.99 -6.48,1.36zm126.63,-12.58c2.14,-0.89 5.75,0.04 6.21,1.55c0.89,2.87 -6.37,3.8 -7.65,0.97c-0.47,-1.09 0,-1.98 1.44,-2.52zm-28.61,15.14c1.94,-1.79 4.66,-1.59 6.99,0.5l0.85,0.82l-1.05,1.09c-0.89,0.93 -1.32,1.09 -3.22,1.09s-2.37,-0.16 -3.49,-1.16l-1.36,-1.16l1.28,-1.16l0,-0.02z" stroke-width="0px" fill="#ee3f21" id="svg_51"/>
   <path class="cls-3" d="m224.99,57.67c-0.85,-1.4 -1.24,-1.51 -1.94,-0.66c-0.39,0.47 -0.27,0.78 0.7,1.75c1.98,1.94 2.72,1.32 1.24,-1.09z" stroke-width="0px" fill="#3b80a6" id="svg_52"/>
   <path class="cls-5" d="m408.42,96.8c2.95,1.32 4.89,2.99 5.82,5.05c0.66,1.48 0.66,1.67 0.08,2.91c-0.7,1.48 -2.91,2.91 -6.09,3.92c-1.82,0.54 -4.19,0.7 -15.68,0.85c-7.92,0.08 -15.8,-0.04 -19.02,-0.27c-2.99,-0.23 -6.87,-0.5 -8.58,-0.62c-2.68,-0.16 -2.83,-0.12 -1.16,0.19c12.11,2.17 38.86,2.48 47.09,0.58c4.15,-0.97 7.45,-3.14 7.45,-4.93c0,-0.89 -6.29,-7.34 -7.96,-8.19c-0.66,-0.31 -1.9,-0.7 -2.72,-0.85c-0.85,-0.12 -1.98,-0.31 -2.52,-0.39l-0.97,-0.16l0.97,0.43c0.54,0.23 2.02,0.89 3.3,1.48l-0.01,0z" stroke-width="0px" fill="#ee3f21" id="svg_53"/>
   <path class="cls-3" d="m240.67,75.45c0.97,-0.93 1.79,-1.86 1.79,-2.14s-0.74,-0.89 -1.67,-1.32c-2.29,-1.13 -2.76,-1.05 -4.7,0.74c-2.95,2.72 -5.01,3.22 -8.66,2.06c-2.06,-0.66 -2.06,-0.62 -3.03,0.27c-0.54,0.5 -0.97,1.05 -0.97,1.24s1.16,0.89 2.64,1.59c5.01,2.33 10.37,1.44 14.6,-2.45l0,0.01z" stroke-width="0px" fill="#3b80a6" id="svg_54"/>
   <path class="cls-3" d="m218.66,63.57c-0.31,0.82 0.5,1.4 1.94,1.4c1.55,0 1.71,-0.85 0.31,-1.48c-1.32,-0.62 -2.02,-0.58 -2.25,0.08z" stroke-width="0px" fill="#3b80a6" id="svg_55"/>
   <path class="cls-3" d="m238.38,55.77c-1.24,-0.89 -2.14,-0.58 -2.14,0.74c0,0.5 0.31,0.7 1.13,0.7c1.44,0 1.94,-0.74 1.01,-1.44z" stroke-width="0px" fill="#3b80a6" id="svg_56"/>
   <path class="cls-3" d="m233.76,54.95c-0.89,0.5 -1.98,2.99 -1.48,3.49c0.35,0.35 1.36,-0.78 2.37,-2.68c0.5,-1.01 0.12,-1.36 -0.89,-0.82l0,0.01z" stroke-width="0px" fill="#3b80a6" id="svg_57"/>
   <path class="cls-3" d="m229.65,56.19c0,0.74 0.16,1.44 0.39,1.59c0.35,0.23 1.55,-1.71 1.55,-2.52c0,-0.19 -0.43,-0.39 -0.97,-0.39c-0.85,0 -0.97,0.16 -0.97,1.32z" stroke-width="0px" fill="#3b80a6" id="svg_58"/>
   <path class="cls-3" d="m226.54,57.47c1.05,1.75 1.55,1.59 1.55,-0.47c0,-1.67 -0.04,-1.75 -1.16,-1.75c-1.36,0 -1.48,0.5 -0.39,2.21l0,0.01z" stroke-width="0px" fill="#3b80a6" id="svg_59"/>
   <path class="cls-3" d="m223.05,62.44c1.09,-0.35 0.97,-1.44 -0.31,-2.64c-0.58,-0.58 -1.2,-1.05 -1.36,-1.05c-0.23,0 -1.44,2.06 -1.44,2.48c0,0.5 2.45,1.4 3.11,1.2l0,0.01z" stroke-width="0px" fill="#3b80a6" id="svg_60"/>
   <path class="cls-4" d="m236.75,64c2.02,-1.32 2.17,-3.84 0.27,-4.85c-1.01,-0.54 -1.63,-0.5 -2.64,0.23c-1.28,0.89 -1.16,2.83 0.27,4.19c1.09,1.05 1.16,1.05 2.1,0.43z" stroke-width="0px" fill="#fff" id="svg_61"/>
   <path class="cls-3" d="m218.39,67.06c0,1.28 0.5,1.79 1.79,1.79c1.48,0 2.1,-0.82 1.32,-1.75c-0.62,-0.78 -3.11,-0.78 -3.11,-0.04z" stroke-width="0px" fill="#3b80a6" id="svg_62"/>
   <path class="cls-5" d="m468.59,113.65c1.13,0.27 2.91,-0.08 2.91,-0.58c0,-0.19 -0.85,-0.35 -1.94,-0.35c-2.06,0 -2.6,0.54 -0.97,0.93z" stroke-width="0px" fill="#ee3f21" id="svg_63"/>
   <path class="cls-5" d="m342.54,91.02c-2.02,0.08 2.6,1.67 5.12,1.75l2.52,0.12l-1.94,-0.35c-1.05,-0.16 -2.6,-0.58 -3.38,-0.93c-0.82,-0.35 -1.86,-0.62 -2.33,-0.58l0.01,-0.01z" stroke-width="0px" fill="#ee3f21" id="svg_64"/>
   <path class="cls-5" d="m358.14,92.92c0,0.23 0.93,0.39 2.06,0.35c1.59,-0.04 1.82,-0.12 1.05,-0.35c-1.4,-0.47 -3.11,-0.47 -3.11,0z" stroke-width="0px" fill="#ee3f21" id="svg_65"/>
   <path class="cls-5" d="m313.69,89.77c2.37,0 4.7,-0.16 5.24,-0.31l0.97,-0.27l-0.97,-0.27c-0.54,-0.12 -4.46,-0.5 -8.73,-0.82c-10.56,-0.82 -12.62,-0.89 -12.42,-0.58c0.12,0.16 0.78,0.39 1.51,0.5c1.9,0.35 3.26,1.59 3.42,3.07c0.12,1.24 0.16,1.24 3.03,1.75c4.04,0.66 4.97,0.47 2.64,-0.66c-3.57,-1.67 -2.1,-2.33 5.32,-2.41l-0.01,0z" stroke-width="0px" fill="#ee3f21" id="svg_66"/>
   <path class="cls-5" d="m332.48,101.11c-1.79,-0.27 -6.83,-1.16 -11.18,-2.02c-4.35,-0.85 -10.05,-1.86 -12.62,-2.29c-2.6,-0.43 -5.09,-0.78 -5.55,-0.78c-0.78,0 -0.78,0.08 0.31,1.13c0.62,0.62 1.13,1.32 1.13,1.51c0,0.23 -0.62,0.78 -1.36,1.24c-1.82,1.13 -1.71,1.55 0.31,1.55c1.32,0 2.1,-0.27 3.38,-1.28c0.93,-0.66 1.98,-1.48 2.41,-1.79c0.62,-0.47 1.36,-0.35 5.67,0.85c9.28,2.64 24.26,6.13 26.01,6.09c0.35,-0.04 -0.66,-0.47 -2.25,-0.97c-1.59,-0.5 -3.3,-1.16 -3.8,-1.44l-0.89,-0.47l0.85,-0.47c0.74,-0.39 0.43,-0.5 -2.41,-0.89l-0.01,0.03z" stroke-width="0px" fill="#ee3f21" id="svg_67"/>
   <path class="cls-2" d="m339.51,102.97c0.7,0.43 9.01,2.06 14.95,2.91c12.11,1.75 35.09,2.91 44.06,2.29c4.93,-0.39 4.54,-0.39 -7.03,-0.47c-6.75,0 -14.52,-0.23 -17.28,-0.43c-6.95,-0.54 -19.84,-2.17 -26.55,-3.38c-7.26,-1.24 -8.93,-1.44 -8.15,-0.93l0,0.01z" stroke-width="0px" fill="#f7ee1d" id="svg_68"/>
   <path class="cls-5" d="m409.74,99.52l-20.65,0.08c-20.81,0.04 -28.73,0.27 -40.84,1.2c-6.52,0.5 -6.56,0.5 -4.54,0.97c3.03,0.7 17.2,2.68 23.95,3.34c23.25,2.33 41.46,1.51 42.78,-1.94c0.12,-0.35 0,-1.28 -0.23,-2.14l-0.47,-1.51z" stroke-width="0px" fill="#ee3f21" id="svg_69"/>
   <path class="cls-2" d="m404.53,107.63c1.48,0.08 5.43,-1.16 6.87,-2.1c0.82,-0.54 1.59,-1.44 1.71,-1.98c0.16,-0.66 0.04,-1.2 -0.39,-1.63c-0.58,-0.58 -0.62,-0.54 -0.62,0.39c0,2.06 -2.33,3.8 -6.41,4.81c-1.05,0.27 -1.59,0.5 -1.16,0.5l0,0.01z" stroke-width="0px" fill="#f7ee1d" id="svg_70"/>
   <path class="cls-2" d="m268.19,113.1c-2.33,-0.39 -5.9,-0.85 -7.96,-1.01l-3.8,-0.27l0,1.4c0,2.33 4,9.36 8.07,14.21c2.72,3.18 7.1,4.85 14.75,5.63l2.02,0.19l0,-1.32c0,-2.29 -3.57,-11.49 -5.94,-15.22c-1.48,-2.33 -2.45,-2.83 -7.14,-3.61z" stroke-width="0px" fill="#f7ee1d" id="svg_71"/>
   <path class="cls-4" d="m293.19,65.12c-0.54,0.82 -0.54,1.01 -0.04,1.75c0.66,0.89 1.71,1.05 2.41,0.35c0.66,-0.66 0.58,-1.63 -0.23,-2.37c-0.97,-0.89 -1.44,-0.82 -2.14,0.27z" stroke-width="0px" fill="#fff" id="svg_72"/>
   <path class="cls-4" d="m285.12,133.68c3.69,0.97 27.6,2.45 36.34,2.25l5.43,-0.12l0,-2.02c-0.04,-3.03 -0.89,-3.88 -5.36,-5.67c-2.06,-0.78 -4.27,-1.55 -4.93,-1.67c-1.09,-0.23 -1.16,-0.19 -1.16,0.89c0,1.59 -1.59,3.11 -4.08,3.8c-1.59,0.47 -4.08,0.58 -12.46,0.5l-10.44,-0.12l-0.12,-1.36c-0.16,-1.75 0.5,-2.6 2.45,-3.3c0.85,-0.31 1.28,-0.54 0.93,-0.58c-0.85,0 -2.56,-1.94 -2.87,-3.22c-0.19,-0.7 -0.04,-1.75 0.39,-2.87c0.54,-1.4 0.58,-1.82 0.16,-2.06c-0.27,-0.19 -2.52,-0.85 -4.97,-1.51c-4.93,-1.28 -7.8,-1.94 -7.8,-1.79c0,0.04 0.85,1.9 1.9,4.12c2.06,4.35 4.31,10.44 4.31,11.61c0,1.51 0.89,2.72 2.29,3.11l-0.01,0.01z" stroke-width="0px" fill="#fff" id="svg_73"/>
   <path class="cls-5" d="m442.42,128.24c1.24,0 1.63,-0.35 1.09,-1.05c-0.54,-0.62 -2.52,-0.66 -2.91,-0.08c-0.35,0.58 0.54,1.13 1.82,1.13z" stroke-width="0px" fill="#ee3f21" id="svg_74"/>
   <path class="cls-2" d="m306.12,128.24c-1.94,0 -3.49,0.47 -3.49,1.05c0,0.5 0.7,0.58 4.58,0.43c2.48,-0.08 4.93,-0.35 5.36,-0.62c1.28,-0.7 1.48,-1.63 0.5,-2.64c-0.78,-0.82 -1.36,-1.13 -4.04,-2.1c-0.89,-0.35 -1.01,-0.5 -0.58,-0.78c0.31,-0.23 1.28,-0.39 2.14,-0.39c1.63,0 2.87,-0.5 2.21,-0.89c-0.19,-0.16 -2.29,-0.39 -4.7,-0.5l-4.31,-0.27l0,1.13c0,1.63 0.39,2.02 2.48,2.48c2.33,0.5 3.34,1.05 3.34,1.71c0,0.62 -1.94,1.4 -3.49,1.4l0,-0.01z" stroke-width="0px" fill="#f7ee1d" id="svg_75"/>
   <path class="cls-2" d="m293.7,128.44c-2.99,0.43 -3.49,0.58 -3.49,1.16c0,0.89 0.54,0.97 4.46,0.58c3.84,-0.39 5.32,-0.89 6.56,-2.29c1.59,-1.79 1.01,-6.75 -0.97,-7.69c-0.54,-0.27 -2.37,-0.58 -4.08,-0.7c-3.61,-0.27 -4.81,0.19 -5.36,2.02c-0.54,1.94 0.43,3.11 2.76,3.42c3.22,0.43 3.61,0.54 3.61,1.36c0,1.01 -1.36,1.86 -3.49,2.14zm3.3,-6.02c-0.31,0.93 -1.82,1.05 -2.56,0.16c-0.43,-0.54 -0.39,-0.7 0.23,-1.16c1.48,-1.09 2.8,-0.5 2.33,1.01l0,-0.01z" stroke-width="0px" fill="#f7ee1d" id="svg_76"/>
   <path class="cls-3" d="m241.06,58.21c-1.01,-0.39 -1.32,-0.27 -1.32,0.54c0,0.58 0.27,0.78 0.97,0.78c1.09,0 1.32,-0.93 0.35,-1.32z" stroke-width="0px" fill="#3b80a6" id="svg_77"/>
   <path class="cls-3" d="m298.47,69.16c1.44,-0.08 2.02,-0.27 2.02,-0.66c0,-0.31 -0.16,-0.58 -0.39,-0.62c-0.35,-0.08 -0.66,-0.04 -2.8,0.43c-1.75,0.35 -0.89,0.97 1.16,0.85l0.01,0z" stroke-width="0px" fill="#3b80a6" id="svg_78"/>
   <path class="cls-3" d="m291.18,62.29c-0.31,-0.54 -0.85,-0.54 -1.16,-0.04c-0.12,0.23 0.04,0.5 0.39,0.62c0.74,0.31 1.16,0 0.78,-0.58l-0.01,0z" stroke-width="0px" fill="#3b80a6" id="svg_79"/>
   <path class="cls-3" d="m296.81,71.41c-0.74,0.27 1.75,1.67 2.99,1.71c0.7,0 1.67,-0.97 1.67,-1.67c0,-0.5 -3.26,-0.5 -4.66,-0.04z" stroke-width="0px" fill="#3b80a6" id="svg_80"/>
   <path class="cls-3" d="m296.57,63.03c-0.31,0 -0.47,0.16 -0.35,0.39c0.12,0.19 0.5,0.39 0.82,0.39s0.47,-0.19 0.35,-0.39c-0.12,-0.23 -0.5,-0.39 -0.82,-0.39z" stroke-width="0px" fill="#3b80a6" id="svg_81"/>
   <path class="cls-3" d="m296.49,75.25c1.55,1.44 2.8,1.75 3.18,0.74q0.35,-0.85 -0.93,-1.51c-0.62,-0.31 -1.71,-0.58 -2.41,-0.58l-1.28,0.04l1.44,1.32l0,-0.01z" stroke-width="0px" fill="#3b80a6" id="svg_82"/>
   <path class="cls-3" d="m299.79,66.4c0.5,-0.5 0.54,-0.74 0.12,-1.2c-0.5,-0.66 -0.66,-0.7 -1.44,-0.35c-0.7,0.27 -0.62,1.09 0.12,1.67c0.47,0.43 0.7,0.39 1.2,-0.12z" stroke-width="0px" fill="#3b80a6" id="svg_83"/>
   <path class="cls-3" d="m288.03,61.71q-0.74,-0.27 -1.05,0c-0.39,0.43 0.12,0.93 0.93,0.93c0.89,0 0.97,-0.58 0.12,-0.93z" stroke-width="0px" fill="#3b80a6" id="svg_84"/>
   <path class="cls-3" d="m240.75,61.55c-1.05,1.51 -0.82,1.98 0.85,1.67c1.82,-0.31 2.33,-0.78 1.79,-1.67c-0.66,-1.01 -1.94,-1.01 -2.64,0z" stroke-width="0px" fill="#3b80a6" id="svg_85"/>
   <path class="cls-5" d="m344.32,121.88c-0.93,-0.35 -2.87,-0.27 -2.87,0.12s1.32,0.82 2.64,0.82c0.97,0 1.16,-0.58 0.23,-0.93l0,-0.01z" stroke-width="0px" fill="#ee3f21" id="svg_86"/>
   <path class="cls-3" d="m239.16,65.74c0,0.47 0.62,0.62 2.64,0.7c2.56,0.12 2.64,0.08 2.52,-0.78c-0.12,-1.01 -0.7,-1.13 -3.42,-0.74c-1.2,0.16 -1.75,0.43 -1.75,0.82l0.01,0z" stroke-width="0px" fill="#3b80a6" id="svg_87"/>
   <path class="cls-3" d="m241.8,70.87c1.75,0.54 2.45,0.08 2.06,-1.4c-0.23,-0.93 -0.43,-1.01 -2.37,-1.01c-3.34,0 -3.18,1.36 0.31,2.41z" stroke-width="0px" fill="#3b80a6" id="svg_88"/>
   <path class="cls-3" d="m282.25,77.93c-1.24,0.82 -1.05,1.16 1.48,2.48c1.75,0.89 2.45,1.05 5.51,1.05c3.57,0 5.67,-0.66 7.65,-2.45c0.82,-0.7 0.43,-1.36 -1.28,-2.25c-1.32,-0.66 -1.13,-0.66 -2.29,0.19c-2.29,1.67 -5.82,2.06 -8.54,0.97c-1.44,-0.58 -1.63,-0.58 -2.52,0l-0.01,0.01z" stroke-width="0px" fill="#3b80a6" id="svg_89"/>
   <path class="cls-4" d="m214.74,142.76c-0.7,-3.53 -2.21,-4.77 -6.13,-4.93l-2.41,-0.08l-0.97,3.38c-1.63,5.51 -2.37,5.55 -3.34,0.12c-0.35,-2.06 -0.93,-3.96 -1.24,-4.27s-0.78,-0.54 -1.01,-0.54c-1.9,0.19 -4.27,0.74 -4.7,1.09c-0.93,0.78 -4.66,9.86 -4.23,10.29c0.16,0.12 0.93,0.23 1.79,0.23c1.16,0 1.75,-0.27 2.6,-1.16c1.2,-1.28 2.72,-1.51 3.49,-0.58c0.39,0.47 1.4,0.58 4.54,0.58s4.08,-0.12 4.23,-0.58c0.31,-0.82 1.16,-0.74 1.79,0.16c1.09,1.51 6.13,4.31 6.13,3.34c0,-0.16 -0.47,-1.13 -1.05,-2.17l-1.09,-1.94l0.93,-0.7c0.82,-0.62 0.89,-0.89 0.66,-2.21l0.01,-0.03zm-18.21,1.24c-1.32,-0.31 -1.63,-1.4 -0.89,-3.11c0.85,-2.02 1.59,-1.79 2.48,0.82c0.54,1.63 -0.16,2.68 -1.59,2.29zm14.05,-0.5c-0.85,-0.04 -1.82,-0.27 -2.14,-0.54c-0.58,-0.47 -0.43,-1.63 0.31,-2.6c0.54,-0.66 1.09,-0.58 2.56,0.31c2.41,1.48 2.02,2.91 -0.74,2.83l0.01,0z" stroke-width="0px" fill="#fff" id="svg_90"/>
   <path class="cls-4" d="m175.49,145.36c-1.28,1.16 -1.75,1.9 -1.75,2.72c0,1.48 -0.47,1.67 -1.75,0.66l-1.05,-0.82l-1.55,1.59l-1.59,1.55l2.25,2.37c1.59,1.67 2.37,2.87 2.68,4.08l0.43,1.67l2.21,-2.02l2.21,-1.98l0.27,-5.71c0.19,-4.27 0.16,-5.71 -0.19,-5.71c-0.23,0 -1.24,0.74 -2.17,1.59l0,0.01z" stroke-width="0px" fill="#fff" id="svg_91"/>
   <path class="cls-5" d="m189.08,99.56c-4.19,-1.16 -8.35,0.23 -12.07,4.04c-7.22,7.41 -14.17,25.23 -15.84,40.65c-0.12,1.24 -0.16,2.25 0,2.25c0.12,0 2.52,-2.21 5.32,-4.97c6.29,-6.06 10.75,-9.47 16.15,-12.23c6.6,-3.42 13.24,-5.43 21.31,-6.52c1.98,-0.23 3.69,-0.62 3.8,-0.82c0.35,-0.58 -2.56,-6.21 -5.36,-10.37c-3.88,-5.9 -9.55,-10.99 -13.32,-12.03l0.01,0z" stroke-width="0px" fill="#ee3f21" id="svg_92"/>
   <path class="cls-4" d="m185.97,142.26c1.75,-0.78 2.76,-2.02 2.37,-2.99c-0.12,-0.31 -0.43,-0.54 -0.74,-0.54c-0.43,0 -7.57,3.3 -8,3.69c-0.23,0.27 0.85,9.94 1.16,10.13c0.43,0.23 6.52,-2.41 7.45,-3.22c0.7,-0.66 0.85,-1.9 0.31,-2.76c-0.27,-0.47 -0.54,-0.43 -1.51,0.08c-0.66,0.35 -1.48,0.62 -1.82,0.62c-1.09,0 -0.39,-0.93 1.28,-1.75c1.2,-0.58 1.63,-1.01 1.63,-1.63c0,-1.05 0.12,-1.05 -1.94,-0.31c-2.87,1.01 -3.07,-0.04 -0.19,-1.32z" stroke-width="0px" fill="#fff" id="svg_93"/>
   <path class="cls-5" d="m219.05,164.27c-0.27,-0.16 -1.09,-0.5 -1.82,-0.7c-0.74,-0.23 -3.18,-0.5 -5.43,-0.58c-3.3,-0.16 -4.5,-0.08 -6.21,0.5c-10.09,3.38 -17.47,11.69 -21.24,23.95c-1.01,3.34 -1.05,3.84 -1.09,12.23c0,8 0.08,9.01 0.89,11.84c2.33,8.07 5.4,13.59 10.17,18.44c4.93,5.01 9.12,7.3 15.06,8.19c6.29,0.97 12.15,-0.7 17.51,-4.93c3.69,-2.91 4.35,-3.96 3.38,-5.28c-0.35,-0.5 -1.16,-1.59 -1.79,-2.45c-0.62,-0.85 -1.13,-1.82 -1.13,-2.14c-0.04,-0.31 0.85,-1.98 1.9,-3.69c2.06,-3.3 2.25,-3.92 1.4,-5.05c-0.5,-0.7 -0.62,-0.66 -2.72,0.74c-3.49,2.33 -6.06,3.07 -9.82,2.87c-4.15,-0.23 -7.49,-1.79 -10.83,-5.16c-9.63,-9.59 -7.61,-26.48 3.84,-32.22c2.52,-1.28 2.95,-1.36 6.44,-1.36c2.06,0 3.96,-0.16 4.27,-0.35c0.43,-0.27 0.27,-1.55 -0.89,-7.45c-0.82,-3.92 -1.67,-7.26 -1.9,-7.41l0.01,0.01zm-7.18,62.15l0.89,-1.16l3.26,0.23c5.32,0.35 6.25,1.2 6.25,5.82c0,3.96 -0.62,4.58 -4.43,4.77c-4.66,0.23 -6.33,-0.12 -7.26,-1.59c-1.32,-2.17 -0.82,-5.36 1.28,-8.07l0.01,0zm-26.67,-18.67c-1.67,-1.94 -2.29,-7.73 -1.16,-11.37c0.27,-1.05 0.78,-2.02 1.05,-2.17c1.55,-1.01 7.53,0 8.89,1.44c0.89,0.93 0.93,1.24 0.93,6.09l0,5.09l-1.9,0.97c-1.48,0.78 -2.52,1.01 -4.43,1.01c-2.21,0 -2.56,-0.12 -3.38,-1.05l0,-0.01zm17.04,10.99c3.69,3.96 3.8,5.2 0.85,8.23c-2.1,2.17 -3.88,3.14 -5.16,2.8c-1.98,-0.47 -6.25,-5.67 -6.91,-8.39c-0.35,-1.36 1.16,-3.11 3.77,-4.39c1.13,-0.54 2.68,-1.01 3.46,-1.01c1.28,0 1.71,0.31 4,2.76l-0.01,0zm-0.27,-37.97c-1.4,2.33 -5.05,5.71 -6.21,5.71c-1.24,0 -5.71,-2.99 -6.44,-4.31c-0.35,-0.66 -0.47,-1.44 -0.27,-2.41c0.31,-1.71 3.3,-5.78 5.24,-7.07c0.74,-0.54 1.71,-0.97 2.14,-0.97c1.86,0 5.09,3.26 6.13,6.21c0.31,0.97 0.23,1.44 -0.58,2.83l-0.01,0.01zm15.45,-5.9c-0.85,0.16 -2.91,0.35 -4.54,0.39c-2.72,0.12 -3.11,0 -4,-0.82c-0.54,-0.5 -1.28,-1.79 -1.71,-2.87c-1.59,-4.39 -1.36,-6.44 0.82,-7.45c0.89,-0.39 2.17,-0.5 4.04,-0.43c5.09,0.27 6.75,2.14 6.87,7.73l0.08,3.18l-1.55,0.27l-0.01,0z" stroke-width="0px" fill="#ee3f21" id="svg_94"/>
   <path class="cls-4" d="m197.27,260.35c-1.24,-0.58 -1.44,-0.58 -2.33,0c-1.28,0.85 -1.36,0.85 -1.79,-0.31c-0.19,-0.5 -1.01,-1.36 -1.82,-1.9c-0.82,-0.54 -1.98,-1.09 -2.6,-1.24c-0.93,-0.23 -1.09,-0.16 -0.89,0.35c0.12,0.35 0.43,1.36 0.66,2.21l0.43,1.63l-2.02,1.82c-1.67,1.51 -1.98,1.94 -1.71,2.72c0.54,1.75 6.33,4.7 9.28,4.7c0.58,0 4.12,-7.22 4.12,-8.46c0,-0.62 -0.39,-1.05 -1.32,-1.51l-0.01,-0.01zm-5.43,5.9c-0.89,0 -1.59,-1.05 -1.28,-1.9c0.31,-0.74 0.66,-0.78 1.59,-0.12c0.89,0.66 0.66,2.02 -0.31,2.02z" stroke-width="0px" fill="#fff" id="svg_95"/>
   <path class="cls-5" d="m214.5,248.71c8.93,-3.22 17.12,-10.4 21.31,-18.67c1.48,-2.87 0.7,-2.17 -1.71,1.59c-4.19,6.44 -11.1,12.5 -16.96,14.91c-6.79,2.76 -15.26,2.79 -22.05,0.08c-5.9,-2.37 -13.04,-8.31 -16.96,-14.13c-3.53,-5.28 -6.44,-12.31 -7.96,-19.33c-1.24,-5.82 -1.24,-16.96 0.04,-22.79c3.34,-15.49 12.19,-27.14 24.26,-31.91c2.99,-1.16 3.46,-1.24 9.39,-1.4c6.17,-0.16 6.29,-0.16 9.71,1.05c1.86,0.62 3.49,1.13 3.53,1.05c0.23,-0.23 -3.65,-1.75 -5.9,-2.37c-9.94,-2.56 -21.12,0.85 -29.35,9.08c-3.8,3.8 -6.17,7.26 -8.89,12.97c-4,8.42 -4.85,12.54 -4.81,23.18c0,8.85 0.58,12.69 2.91,19.29c3.22,9.05 9.32,17.62 16.11,22.48c3.3,2.37 8.39,4.7 11.8,5.43c4.04,0.85 12.5,0.58 15.53,-0.5l0,-0.01z" stroke-width="0px" fill="#ee3f21" id="svg_96"/>
   <path class="cls-5" d="m126.81,148.12c-0.12,2.95 2.33,27.21 2.91,29.15c0.12,0.39 -0.04,0.78 -0.43,0.89c-0.7,0.27 -3.84,-2.06 -11.26,-8.35c-2.76,-2.37 -5.24,-4.31 -5.47,-4.31s-0.97,2.76 -1.67,6.09c-2.21,11.06 -3.34,13.7 -5.75,13.7c-2.1,0 -2.1,0.27 0.31,6.68s2.99,8.46 2.45,8.46c-0.19,0 -2.1,-1.51 -4.23,-3.38c-4.46,-3.84 -12.15,-10.05 -15.45,-12.5c-2.72,-1.98 -4.08,-2.6 -7.69,-3.34c-4.27,-0.89 -5.28,-1.55 -7.22,-4.54c-1.48,-2.29 -2.83,-3.38 -2.83,-2.29c0,1.51 1.05,4.46 1.75,4.93c0.47,0.31 4.04,1.94 7.92,3.65c11.14,4.85 12.15,5.59 16.73,12.42c1.67,2.45 3.34,4.77 3.77,5.12c1.98,1.79 5.94,3.03 28.38,8.89c11.34,2.95 13.78,3.49 14.09,3.03c0.19,-0.31 0.35,-4.74 0.35,-9.86c0.04,-13.82 0.58,-18.25 3.49,-27.68l1.51,-4.89l-3.61,-3.88c-8.11,-8.7 -18.05,-18.63 -18.05,-18.01l0,0.02z" stroke-width="0px" fill="#ee3f21" id="svg_97"/>
   <path class="cls-4" d="m168.5,160.27c-1.01,-1.63 -1.24,-3.07 -0.58,-3.49c0.58,-0.35 0.47,-1.63 -0.19,-2.91c-0.35,-0.66 -0.78,-1.16 -1.01,-1.16c-0.85,0 -6.56,6.95 -6.56,7.96c0,0.31 0.43,1.01 0.93,1.63c0.82,0.93 1.01,1.01 1.55,0.54c0.54,-0.47 0.78,-0.43 1.63,0.39c0.54,0.5 1.36,1.51 1.79,2.25l0.82,1.32l1.32,-1.4c1.55,-1.71 1.63,-2.99 0.31,-5.12l-0.01,-0.01z" stroke-width="0px" fill="#fff" id="svg_98"/>
   <path class="cls-3" d="m89.5,193.19c1.16,2.64 1.36,4.66 0.62,6.91c-0.39,1.09 -0.58,2.1 -0.47,2.17c0.31,0.35 6.83,-0.31 6.83,-0.66c0,-0.39 -5.01,-7.88 -6.17,-9.24c-1.2,-1.4 -1.59,-1.01 -0.82,0.82l0.01,0z" stroke-width="0px" fill="#3b80a6" id="svg_99"/>
   <path class="cls-4" d="m152.7,200.02c4.74,1.79 5.05,1.86 5.36,0.66c0.12,-0.54 0.12,-1.59 0,-2.33c-0.23,-1.24 -0.47,-1.44 -4.31,-3.11c-2.25,-0.97 -4.27,-1.79 -4.46,-1.79c-0.5,0 -0.5,2.14 0,3.96c0.39,1.32 0.62,1.51 3.42,2.6l-0.01,0.01z" stroke-width="0px" fill="#fff" id="svg_100"/>
   <path class="cls-5" d="m213.3,181.58c-9.08,3.22 -12.81,15.53 -7.8,25.78c1.51,3.14 4.7,6.41 7.69,7.88c2.33,1.16 2.64,1.2 6.29,1.05c3.53,-0.12 4,-0.23 6.06,-1.48c1.2,-0.74 2.64,-1.79 3.14,-2.33l0.93,-0.97l-1.51,-6.02c-0.82,-3.3 -2.21,-9.43 -3.11,-13.59c-1.79,-8.39 -2.45,-10.13 -3.88,-10.52c-1.67,-0.47 -6.33,-0.35 -7.8,0.19l-0.01,0.01z" stroke-width="0px" fill="#ee3f21" id="svg_101"/>
   <path class="cls-4" d="m157.01,203.75c-1.86,-1.01 -2.48,-0.78 -2.91,1.05c-0.39,1.79 -0.7,1.9 -3.65,1.44c-0.93,-0.16 -0.97,-0.12 -1.09,2.64c-0.08,2.37 0,2.79 0.58,2.99c1.67,0.5 8.39,2.17 8.73,2.17c0.43,0 0.08,-8.04 -0.35,-9.2c-0.12,-0.31 -0.7,-0.78 -1.32,-1.09l0.01,0z" stroke-width="0px" fill="#fff" id="svg_102"/>
   <path class="cls-4" d="m159.84,164.62l-1.13,-1.09l-0.66,1.01c-1.01,1.55 -1.2,3.14 -0.47,4.27c0.39,0.58 0.62,1.36 0.54,1.82q-0.12,0.78 -1.09,0c-1.24,-0.97 -1.79,-0.74 -2.76,1.16l-0.78,1.55l1.09,1.59c0.58,0.89 2.1,2.64 3.3,3.92c2.48,2.6 2.91,2.56 3.8,-0.16c0.47,-1.44 0.47,-1.67 -0.31,-2.72c-0.85,-1.13 -1.16,-2.72 -0.54,-2.72c0.19,0 0.66,0.27 1.09,0.58c1.28,0.97 1.94,0.7 2.68,-1.16l0.66,-1.79l-2.14,-2.6c-1.2,-1.44 -2.68,-3.11 -3.3,-3.69l0.02,0.03z" stroke-width="0px" fill="#fff" id="svg_103"/>
   <path class="cls-4" d="m155.85,181.08c-0.58,0.93 -0.39,4.7 0.23,5.4c0.54,0.58 0.54,0.7 0,1.16c-1.2,1.01 -1.67,-0.16 -1.82,-4.46c-0.12,-3.49 -0.23,-4.12 -0.89,-4.62c-0.43,-0.35 -0.89,-0.62 -1.05,-0.62c-1.05,-0.04 -1.98,9.98 -1.13,12.54c0.62,1.82 2.1,2.99 3.8,2.99c2.8,0 3.73,-1.32 4.54,-6.44l0.54,-3.38l-1.4,-1.2c-1.94,-1.75 -2.45,-1.98 -2.83,-1.36l0.01,-0.01z" stroke-width="0px" fill="#fff" id="svg_104"/>
   <path class="cls-5" d="m511.91,157.55c-0.62,-5.09 -2.14,-12.54 -3.14,-15.72c-7.14,-21.93 -25.12,-38.63 -47.67,-44.26c-4.35,-1.09 -15.18,-2.87 -15.53,-2.56c-0.08,0.08 0.89,0.43 2.14,0.78c14.32,4 24.34,8.93 29.97,14.79c4.19,4.35 4.12,5.43 -0.7,10.02c-5.86,5.55 -17,12.23 -22.52,13.51c-2.99,0.66 -13.74,0.27 -31.29,-1.16c-25.43,-2.1 -32.18,-2.48 -55.71,-3.14c-14.6,-0.43 -23.45,-0.93 -27.91,-1.59c-3.07,-0.47 -10.09,-2.41 -18.75,-5.2c-2.91,-0.97 -5.51,-1.75 -5.75,-1.75s-0.39,0.47 -0.31,1.05c0.16,1.28 0.89,1.71 6.91,4.04c2.25,0.85 4.5,1.94 5.01,2.41c2.21,2.06 3.14,6.87 1.63,8.39c-1.09,1.09 -4.74,1.36 -14.01,1.09c-20.38,-0.66 -42.2,-3.3 -47.01,-5.75c-4.23,-2.14 -12.5,-14.29 -13.08,-19.18c-0.16,-1.44 -0.04,-1.75 0.78,-2.29c2.99,-1.94 10.83,-0.89 31.17,4.23c5.47,1.4 10.56,2.52 11.22,2.52c0.7,0 2.29,0.35 3.53,0.78c1.94,0.66 9.86,1.75 10.21,1.4c0.35,-0.35 -14.79,-5.28 -31.13,-10.13c-12.11,-3.61 -13.2,-4.12 -22.01,-9.94c-13.01,-8.62 -18.28,-11.49 -26.44,-14.48l-4.97,-1.79l-48.06,0l-1.16,-1.09c-1.55,-1.44 -1.86,-4.27 -1.24,-11.53c1.63,-19.95 5.82,-40.76 9.08,-45.19c2.06,-2.76 5.09,-4.58 10.21,-6.06c13.39,-3.88 40.45,-2.33 78.34,4.5c24.73,4.46 48.91,11.03 59.78,16.23c6.44,3.07 6.87,3.57 25.51,31.41c7.07,10.52 12.93,19.02 13.01,18.94c0.31,-0.31 -3.3,-6.02 -12.89,-20.42c-18.52,-27.72 -22.09,-32.07 -29.31,-35.87c-6.75,-3.57 -29.31,-9.82 -51.05,-14.17c-16.65,-3.3 -36.14,-6.29 -45.81,-7.03c-6.33,-0.47 -28.84,-0.43 -33.39,0.04c-5.82,0.62 -17.08,2.68 -24.07,4.43c-18.79,4.66 -35.64,12.19 -49.65,22.24c-3.84,2.76 -7.92,6.33 -14.4,12.58c-2.8,2.68 -5.43,5.05 -5.82,5.24c-0.54,0.27 -1.94,0.23 -4.46,-0.16c-4.43,-0.62 -32.14,-1.13 -32.96,-0.58c-0.43,0.31 -0.35,0.93 0.31,3.61c0.47,1.75 0.82,3.8 0.82,4.5c0,1.48 0.23,1.55 1.55,0.47c3.8,-3.07 10.48,-6.87 13.2,-7.53c1.48,-0.35 4.19,1.67 7.76,5.71c6.17,6.95 13.16,16.96 18.05,25.82c3.22,5.82 4.04,6.56 7.26,6.91c4.5,0.5 4.39,0.58 6.68,-4.31c2.29,-4.97 2.8,-5.86 3.14,-5.55c0.12,0.16 1.28,4.15 2.56,8.93c5.4,20.3 17.16,55.44 21.2,63.39l1.16,2.33l0.58,-0.97c5.98,-9.74 5.67,-8.85 6.52,-17.82c1.2,-12.73 5.55,-25.89 11.41,-34.74c2.52,-3.77 7.88,-9.01 10.52,-10.29c5.59,-2.72 12.35,-0.58 19.06,6.02c10.05,9.94 16.38,26.86 24.81,66.58c6.95,32.88 9.24,41.38 13.12,49.11c4.43,8.81 8.66,11.69 21.27,14.36c22.36,4.7 69.57,6.91 150.97,6.95c37.97,0.04 39.25,0 47.71,-0.85c21.55,-2.21 32.34,-5.32 39.02,-11.34c6.72,-6.02 12.77,-23.8 15.06,-44.06c0.58,-5.51 0.58,-21.78 -0.04,-26.79l0,-0.02zm-393.8,-86.49c-1.05,0.66 -9.82,-10.91 -9.43,-12.42c0.82,-3.26 10.33,-13.08 17.74,-18.28c2.72,-1.9 5.67,-3.88 6.56,-4.35c0.93,-0.5 1.82,-0.82 1.98,-0.7c0.43,0.23 0.47,0.16 -5.47,12c-2.72,5.32 -6.25,12.81 -7.92,16.62c-1.67,3.8 -3.22,6.99 -3.46,7.14l0,-0.01zm50.82,-25.31c-2.37,14.87 -6.6,30.63 -9.28,34.63c-1.79,2.64 -2.48,2.91 -6.91,2.68c-7.84,-0.43 -19.1,-3.42 -27.02,-7.26c-4.85,-2.33 -5.01,-2.6 -3.46,-7.14c1.51,-4.46 7.26,-18.05 10.52,-24.85c3.65,-7.73 5.24,-10.17 7.07,-10.95c1.94,-0.78 10.87,-2.72 14.67,-3.14c4.35,-0.5 4.62,-0.5 8.46,-0.08c3.77,0.43 5.4,1.09 6.17,2.45c0.74,1.24 0.58,8.46 -0.23,13.67l0.01,-0.01zm47.67,64.91c-0.23,0.08 -1.44,-1.75 -2.68,-4.04c-2.87,-5.32 -5.2,-9.05 -5.67,-9.05c-0.19,0 -0.62,0.43 -0.97,0.97c-0.35,0.54 -0.82,0.97 -1.01,0.97c-0.23,0 -1.71,-1.24 -3.34,-2.76c-1.63,-1.51 -3.88,-3.49 -5.01,-4.39c-1.13,-0.85 -2.06,-1.79 -2.06,-2.02c0,-0.7 3.77,-3.96 6.02,-5.24c1.05,-0.62 2.25,-1.13 2.6,-1.13s1.16,0.62 1.82,1.44l1.16,1.4l1.75,-0.89c1.44,-0.78 1.82,-0.85 2.33,-0.43c1.71,1.44 4.66,10.02 5.28,15.41c0.5,4.43 0.39,9.55 -0.23,9.74l0.01,0.02zm254.35,53.34c-0.5,0.93 -1.2,3.03 -1.51,4.66c-3.46,16.89 -18.09,28.26 -42.9,33.31c-8.81,1.82 -13.16,2.1 -29.35,1.86c-12.93,-0.16 -15.06,-0.27 -21,-1.2c-11.84,-1.79 -20.26,-3.73 -29.5,-6.72c-15.72,-5.12 -24.19,-9.9 -31.83,-18.09c-6.17,-6.6 -10.71,-14.21 -13.24,-22.32c-0.74,-2.37 -1.55,-4.35 -1.75,-4.35s-1.36,0.62 -2.52,1.36s-2.37,1.36 -2.68,1.36c-0.54,0 -0.54,-0.16 0.04,-1.2c1.51,-2.95 5.71,-5.98 9.9,-7.1c3.46,-0.97 8.62,0.16 9.67,2.1c0.35,0.66 0.19,0.74 -1.24,0.85l-1.67,0.12l2.33,1.51c10.09,6.64 32.96,12.66 59.59,15.72c14.44,1.67 17.43,1.79 40.96,1.79c19.22,0 23.95,-0.12 29.5,-0.7c11.03,-1.16 20.73,-2.72 27.06,-4.35l1.09,-0.27l-0.93,1.67l-0.02,-0.01zm35.4,-21.16c-1.28,1.32 -3.77,1.59 -17.74,2.06c-10.68,0.35 -11.1,0.35 -12.58,-0.39c-2.29,-1.2 -4.77,-3.69 -5.9,-5.9c-1.4,-2.87 -1.28,-3.84 0.7,-5.43c3.22,-2.68 13.32,-8.27 18.32,-10.21c4.08,-1.59 6.64,-1.09 9.51,1.79c3.61,3.61 8.5,12.54 8.62,15.76c0.04,1.01 -0.23,1.63 -0.93,2.33l0,-0.01z" stroke-width="0px" fill="#ee3f21" id="svg_105"/>
   <path class="cls-4" d="m447.55,180.19c-4.89,1.59 -12.77,3.3 -19.99,4.35c-5.4,0.78 -6.83,0.82 -28.15,0.66l-22.44,-0.16l-7.96,-1.2c-23.49,-3.61 -41.93,-8.93 -56.64,-16.34c-1.28,-0.66 -2.45,-1.2 -2.56,-1.2c-0.66,0 2.8,4.74 6.72,9.16c7.49,8.58 20.69,15.18 39.68,19.95c15.41,3.88 28.46,5.47 44.64,5.47c13.01,0.04 22.9,-1.01 32.03,-3.34c6.48,-1.63 14.44,-4.97 18.4,-7.69l1.67,-1.16l-0.16,-4.23c-0.23,-5.82 -0.27,-5.86 -5.24,-4.27z" stroke-width="0px" fill="#fff" id="svg_106"/>
   <path class="cls-3" d="m165.28,32.36c-4.89,-1.36 -24.07,1.01 -25.82,3.22c-2.64,3.38 -16.03,34.01 -15.72,36.06c0.39,2.68 16.11,7.65 28.07,8.85c4.7,0.47 5.05,0.35 6.41,-2.33c2.99,-5.98 9.32,-34.4 9.32,-41.97c0,-2.52 -0.47,-3.34 -2.25,-3.84l-0.01,0.01z" stroke-width="0px" fill="#3b80a6" id="svg_107"/>
   <path class="cls-4" d="m411.52,170.36c-24.65,0 -26.4,-0.04 -33.58,-0.89c-22.87,-2.68 -40.22,-6.29 -52.21,-10.83c-6.02,-2.29 -9.59,-4.08 -14.29,-7.26c-3.07,-2.02 -4.12,-2.56 -5.24,-2.52c-2.02,0.04 -3.18,0.66 -3.18,1.75c0,1.71 3.03,9.55 4.12,10.68c2.14,2.21 13.43,7.41 23.84,10.99c18.09,6.21 38.63,9.82 61.26,10.71c10.91,0.43 31.37,-0.12 37.77,-0.97c9.36,-1.32 17.94,-3.34 20.38,-4.89c1.55,-0.93 3.61,-4.77 3.92,-7.26l0.19,-1.86l-4,0.66c-9.32,1.59 -12.19,1.71 -38.98,1.71l0,-0.02z" stroke-width="0px" fill="#fff" id="svg_108"/>
   <path class="cls-2" d="m208.84,88.3c-1.13,1.05 -2.21,0.7 -3.26,-1.05c-0.93,-1.44 -1.63,-1.59 -3.11,-0.66c-1.82,1.2 -4.27,3.26 -4.27,3.61c0,0.43 7.18,6.6 7.65,6.6c0.19,0 0.62,-0.54 0.93,-1.24c0.31,-0.66 0.74,-1.28 0.97,-1.36c0.43,-0.16 5.16,6.83 6.72,9.86c0.85,1.75 1.59,2.45 1.59,1.55c0,-2.68 -2.76,-13.59 -4.12,-16.27c-1.05,-2.06 -1.79,-2.29 -3.11,-1.05l0.01,0.01z" stroke-width="0px" fill="#f7ee1d" id="svg_109"/>
   <path class="cls-3" d="m86.59,192.38c-1.16,-0.93 -1.55,-1.01 -2.76,-0.43c-1.63,0.82 -2.37,3.11 -2.17,6.87c0.08,1.63 2.25,3.96 3.65,3.96c1.79,0 3.42,-2.52 3.42,-5.24c0,-2.25 -0.78,-4.08 -2.14,-5.16z" stroke-width="0px" fill="#3b80a6" id="svg_110"/>
   <path class="cls-4" d="m483.42,127.62c-5.86,3.03 -8.5,4.62 -10.68,6.37c-1.48,1.16 -1.67,1.51 -1.48,2.48c0.27,1.4 2.21,4.23 3.61,5.36c1.01,0.78 1.32,0.82 13.16,0.7c6.68,-0.08 12.27,-0.23 12.38,-0.39c0.66,-0.66 -4.81,-9.2 -8.77,-13.7c-3.26,-3.73 -2.72,-3.69 -8.23,-0.82l0.01,0z" stroke-width="0px" fill="#fff" id="svg_111"/>
   <path class="cls-2" d="m496.97,125.99c-1.94,-1.82 -2.29,-2.02 -3.88,-2.02c-1.24,0 -1.79,0.16 -1.79,0.5c0,0.31 1.13,2.06 2.52,3.88c3.22,4.27 6.95,9.94 7.8,11.92c0.78,1.71 1.67,2.21 2.87,1.55c1.13,-0.58 0.97,-2.02 -0.54,-5.47c-1.71,-3.96 -4.39,-7.88 -6.99,-10.37l0.01,0.01z" stroke-width="0px" fill="#f7ee1d" id="svg_112"/>
   <path class="cls-4" d="m229.02,260.93c0.23,-1.79 0.35,-1.94 1.13,-1.67c2.14,0.66 2.48,0.62 3.69,-0.39c0.7,-0.58 1.24,-1.36 1.24,-1.75s-0.66,-1.55 -1.48,-2.6c-1.94,-2.41 -2.41,-3.34 -2.41,-4.54s-0.23,-1.24 -1.94,-0.04c-1.9,1.36 -2.25,2.25 -3.11,7.96c-0.43,2.8 -0.93,5.43 -1.16,5.82c-0.89,1.63 -1.16,0.66 -1.16,-3.88s0,-4.66 -0.93,-4.66c-0.5,0 -2.37,0.74 -4.15,1.63c-2.45,1.28 -3.3,1.9 -3.38,2.52c-0.16,1.09 0.5,1.16 2.52,0.31c1.59,-0.66 3.22,-0.78 3.22,-0.19c0,0.19 -0.93,0.93 -2.1,1.55c-2.25,1.28 -3.84,2.76 -2.37,2.17c1.28,-0.5 3.3,-0.74 3.3,-0.43c0,0.78 -1.48,1.82 -3.38,2.37c-1.86,0.54 -2.1,0.74 -2.48,2.14c-0.74,2.41 -0.16,2.64 3.22,1.32c1.55,-0.62 4.77,-2.14 7.14,-3.42l4.35,-2.29l0.23,-1.94l0.01,0.01z" stroke-width="0px" fill="#fff" id="svg_113"/>
   <path class="cls-4" d="m236.52,242.38c-1.01,0.89 -1.71,1.82 -1.55,2.06c0.12,0.19 0.62,1.51 1.13,2.95l0.89,2.52l-0.78,1.28c-0.89,1.44 -0.7,3.49 0.35,3.88c0.78,0.31 5.51,-4.58 6.72,-6.91c0.82,-1.63 0.82,-1.71 0.12,-2.99c-0.62,-1.13 -0.85,-1.28 -1.82,-1.09c-0.93,0.19 -1.2,0.04 -1.75,-0.97c-1.44,-2.6 -1.36,-2.56 -3.3,-0.74l-0.01,0.01z" stroke-width="0px" fill="#fff" id="svg_114"/>
   <path class="cls-3" d="m129.33,42.53c0.7,-1.51 1.16,-2.8 0.97,-2.8c-0.16,0 -2.29,1.63 -4.74,3.65c-5.01,4.12 -13.08,12.23 -14.09,14.17q-0.66,1.28 0.62,3.42c1.67,2.76 4.5,6.33 5.01,6.33c0.19,0 1.2,-1.79 2.21,-4c0.97,-2.17 3.34,-7.1 5.24,-10.95c1.9,-3.84 4.04,-8.27 4.77,-9.82l0.01,0z" stroke-width="0px" fill="#3b80a6" id="svg_115"/>
   <path class="cls-4" d="m208.57,260.43c-1.24,1.09 -2.68,1.24 -3.38,0.39c-0.35,-0.43 -1.05,-0.58 -2.29,-0.5l-1.79,0.12l0,10.48l2.29,0.27c3.46,0.43 3.77,0.16 7.1,-6.21l2.91,-5.51l-1.9,0c-1.44,0.04 -2.14,0.23 -2.95,0.97l0.01,-0.01zm-2.8,7.07c-0.82,0.93 -1.01,1.01 -1.36,0.5c-0.43,-0.66 -0.5,-2.72 -0.16,-3.65c0.27,-0.66 1.59,-0.82 2.45,-0.27c0.74,0.47 0.31,2.02 -0.93,3.42z" stroke-width="0px" fill="#fff" id="svg_116"/>
   <path class="cls-4" d="m248.08,237.33c0.82,0.89 1.75,1.01 1.75,0.23s-0.47,-1.05 -4.15,-2.68c-1.75,-0.78 -3.34,-1.44 -3.49,-1.44s-0.7,0.7 -1.2,1.59l-0.93,1.59l1.09,1.59c2.06,3.14 4.08,5.71 4.46,5.71c0.23,0 0.74,-0.82 1.2,-1.82c0.74,-1.67 0.74,-1.86 0.16,-3.11c-0.35,-0.7 -0.62,-1.55 -0.62,-1.86c0,-0.82 0.93,-0.7 1.75,0.19l-0.02,0.01z" stroke-width="0px" fill="#fff" id="svg_117"/>
   <path class="cls-5" d="m212.14,160.85c3.14,-0.04 3.26,-0.08 2.14,-0.54c-0.66,-0.31 -2.06,-0.7 -3.11,-0.93c-2.83,-0.62 -8.58,-0.85 -11.22,-0.47c-7.26,1.01 -15.41,6.75 -20.5,14.48c-2.64,4 -3.77,6.17 -5.24,10.44c-2.14,6.02 -2.6,9.28 -2.6,18.36c0.04,7.53 0.12,8.46 1.05,12.23c2.56,10.13 6.6,17.59 12.89,23.6c5.24,5.05 11.06,7.88 17.66,8.62c7.88,0.89 14.56,-1.24 21.16,-6.75c2.1,-1.79 7.34,-7.65 7.07,-7.92c-0.12,-0.08 -1.28,0.82 -2.64,2.06c-4.74,4.27 -11.72,6.72 -17.7,6.21c-10.37,-0.85 -19.8,-7.88 -25.27,-18.75c-3.22,-6.37 -4.66,-12.07 -4.97,-19.68c-0.27,-6.52 0.31,-10.83 2.29,-16.81c4.89,-14.75 16.11,-24.11 29,-24.15l-0.01,0z" stroke-width="0px" fill="#ee3f21" id="svg_118"/>
   <path class="cls-4" d="m259.65,247.74c-4.85,7.34 -10.75,13.47 -17.86,18.56c-3.46,2.48 -11.14,6.68 -13.78,7.53c-0.82,0.23 -1.55,0.62 -1.67,0.82c-0.43,0.62 5.36,-1.63 9.16,-3.61c9.78,-5.09 20.73,-15.49 25.82,-24.57c0.78,-1.4 1.32,-2.64 1.24,-2.72c-0.08,-0.12 -1.4,1.71 -2.91,4l0,-0.01z" stroke-width="0px" fill="#fff" id="svg_119"/>
   <path class="cls-5" d="m58.52,124.32l-0.23,-2.02c-0.43,-3.18 -3.65,-17.51 -4.74,-20.85c-1.86,-5.98 -4.39,-10.6 -6.41,-11.8c-1.4,-0.82 -2.37,-0.78 -3.61,0.19c-1.32,1.01 -3.49,5.28 -4.31,8.42c-1.75,6.79 -1.79,25.51 -0.04,33.62c0.93,4.39 1.2,5.24 1.55,4.85c0.04,-0.08 0.85,-1.44 1.79,-3.03c3.46,-5.98 6.29,-7.76 14.52,-9.16l1.48,-0.23l0,0.01z" stroke-width="0px" fill="#ee3f21" id="svg_120"/>
   <path class="cls-5" d="m99.94,191.87c2.87,2.37 5.28,4.23 5.36,4.15c0.19,-0.16 -3.11,-8.04 -4,-9.55c-0.43,-0.74 -1.16,-1.44 -1.71,-1.55c-4.74,-1.32 -5.55,-1.71 -6.79,-2.95c-0.82,-0.82 -1.36,-1.75 -1.36,-2.29c0,-1.24 -0.7,-1.24 -1.13,-0.04c-0.19,0.5 -0.85,1.24 -1.4,1.67l-1.05,0.74l3.42,2.76c1.9,1.51 5.78,4.7 8.66,7.07l0,-0.01z" stroke-width="0px" fill="#ee3f21" id="svg_121"/>
   <path class="cls-5" d="m332.13,94.28c-0.54,-0.66 -1.16,-0.78 -1.16,-0.23c0,0.19 0.27,0.47 0.62,0.58c0.93,0.35 1.09,0.27 0.54,-0.35z" stroke-width="0px" fill="#ee3f21" id="svg_122"/>
   <path class="cls-5" d="m51.22,164c-0.78,5.4 -0.58,18.4 0.43,25.97c1.36,10.33 3.88,20.92 6.02,25.43c1.51,3.11 3.42,5.63 4.27,5.63c0.74,0 1.55,-1.48 2.29,-4.08c0.89,-3.03 1.36,-17.16 0.89,-25.54c-0.85,-15.26 -4.97,-32.42 -8.42,-35.13c-2.76,-2.17 -4.31,0 -5.47,7.73l-0.01,-0.01z" stroke-width="0px" fill="#ee3f21" id="svg_123"/>
   <path class="cls-2" d="m36.47,129.21c-0.97,-4.23 -1.09,-5.51 -1.24,-13.78c-0.16,-9.9 0.12,-12.85 1.75,-18.05c1.82,-5.75 3.8,-8.77 6.79,-10.33c1.9,-0.97 2.95,-0.93 4.66,0.23c2.99,2.02 5.55,6.68 7.84,14.25c2.76,9.2 5.01,20.15 9.74,48.06c3.46,20.19 3.53,20.73 4.46,21.82l0.74,0.89l0.04,-0.85c0,-0.5 -0.35,-3.07 -0.78,-5.71c-0.43,-2.64 -0.82,-6.52 -0.89,-8.58l-0.08,-3.77l4.46,-0.04l4.46,-0.08l0.12,-1.59l0.12,-1.59l-2.64,-0.85c-3.22,-1.05 -4.89,-2.29 -6.06,-4.43c-0.82,-1.55 -0.85,-2.02 -0.82,-11.34c0.04,-16.73 2.21,-25.85 7.92,-33.27c5.32,-6.87 14.48,-9.24 21.74,-5.59c1.94,0.97 3.42,3.3 3.77,6.02c0.12,0.89 0.31,1.59 0.47,1.59c0.12,-0.04 0.85,-0.93 1.59,-2.02c1.51,-2.25 3.53,-3.8 4.89,-3.8c0.5,0 1.01,-0.19 1.13,-0.39c0.31,-0.54 -2.91,-6.56 -7.1,-13.28c-7.1,-11.34 -16.5,-22.44 -18.94,-22.44c-2.29,0 -9.43,4.15 -13.86,8.11c-1.24,1.09 -2.45,1.9 -2.64,1.79c-0.19,-0.16 -0.35,-1.09 -0.35,-2.1c0,-2.45 -1.05,-8.04 -1.79,-9.43c-0.5,-1.01 -0.74,-1.09 -2.8,-1.05c-2.45,0.04 -3.84,0.35 -8.42,1.79c-4.66,1.44 -7.41,3.07 -10.68,6.33c-3.53,3.49 -5.4,6.29 -7.45,10.99c-5.67,13.08 -6.06,32.42 -1.05,52.49c1.09,4.31 2.99,10.02 3.65,10.91c0.31,0.43 0.04,-0.82 -0.58,-2.76c-0.58,-1.94 -1.59,-5.59 -2.17,-8.15z" stroke-width="0px" fill="#f7ee1d" id="svg_124"/>
   <path class="cls-2" d="m91.44,154.49l0,2.02l2.06,0.47c1.09,0.27 3.18,0.54 4.58,0.66l2.56,0.19l0.47,-1.24c0.93,-2.72 0.97,-2.72 -4.12,-3.65c-1.75,-0.35 -3.61,-0.7 -4.08,-0.82c-1.28,-0.31 -1.48,0.04 -1.48,2.37l0.01,0z" stroke-width="0px" fill="#f7ee1d" id="svg_125"/>
   <path class="cls-5" d="m36.12,68.58c2.72,-3.92 7.41,-8.46 10.52,-10.09c2.33,-1.24 8.15,-3.14 12.38,-4.08c1.75,-0.39 6.6,-0.5 19.02,-0.47c14.56,0 17.28,0.12 21.16,0.74c2.45,0.43 4.58,0.78 4.74,0.78c0.12,0 3.53,-3.11 7.57,-6.87c4,-3.77 8.85,-8.11 10.79,-9.71l3.46,-2.83l-2.68,-0.27c-1.51,-0.12 -7.18,-0.43 -12.62,-0.66c-11.84,-0.5 -14.75,-0.93 -26.28,-3.69c-10.13,-2.41 -13.74,-3.14 -18.36,-3.73c-1.82,-0.23 -6.6,-0.5 -10.68,-0.62c-9.43,-0.27 -9.67,-0.16 -12.93,5.67c-3.34,6.02 -6.68,20.38 -7.65,32.8c-0.12,1.71 -0.31,3.8 -0.43,4.66c-0.23,1.55 -0.19,1.51 1.98,-1.63l0.01,0z" stroke-width="0px" fill="#ee3f21" id="svg_126"/>
   <path class="cls-2" d="m113.14,125.14c-1.32,0 -1.48,0.74 -0.35,1.75c2.6,2.37 2.68,10.48 0.35,30.78l-0.47,4.04l3.84,3.84c3.88,3.96 9.9,9.28 10.44,9.28c0.16,0 0.19,-0.82 0.04,-1.86c-1.01,-7.76 -2.41,-28.53 -1.94,-29.23c0.16,-0.27 5.2,4.62 12.19,11.72l11.96,12.19l0.85,-1.86l0.82,-1.86l-2.48,-5.9c-5.86,-13.7 -13.94,-37.58 -20.34,-60.25c-0.93,-3.42 -1.82,-6.29 -1.9,-6.37c-0.23,-0.23 -1.36,2.68 -1.59,4.15c-0.19,1.09 -0.08,1.32 0.62,1.51c0.54,0.12 0.82,0.5 0.82,1.13c0,1.05 -2.6,8.42 -5.01,14.13c-4.85,11.69 -5.55,12.81 -7.84,12.81l-0.01,0z" stroke-width="0px" fill="#f7ee1d" id="svg_127"/>
   <path class="cls-2" d="m108.8,98.74c-0.58,0.19 -1.4,0.74 -1.82,1.24c-2.1,2.52 -6.64,13.51 -9.05,21.86c-2.56,8.85 -4.46,18.67 -3.96,20.65c0.27,1.2 1.09,1.48 6.09,2.06l4.19,0.5l-0.23,2.76c-0.62,7.96 -1.32,10.48 -3.22,11.57c-0.93,0.58 -1.36,0.54 -4.7,-0.12c-5.71,-1.13 -5.2,-1.55 -4.93,4.19c0.27,5.55 1.05,10.29 2.02,12.15c0.82,1.59 3.61,2.87 8.11,3.69c4.23,0.78 5.16,0.62 5.9,-1.24c3.14,-7.49 6.95,-43.87 5.09,-48.33c-0.62,-1.51 -1.9,-2.37 -4.15,-2.83c-2.72,-0.5 -2.8,-0.58 -2.52,-1.67c0.12,-0.58 0.78,-2.76 1.4,-4.89l1.2,-3.84l4,0.27c4.62,0.31 4.77,0.23 6.33,-3.26c1.63,-3.73 4.35,-11.22 4.58,-12.77l0.23,-1.51l-2.83,-0.23c-5.78,-0.43 -10.68,-0.5 -11.72,-0.23l-0.01,-0.02z" stroke-width="0px" fill="#f7ee1d" id="svg_128"/>
   <path class="cls-2" d="m73.7,155.26l-2.45,-0.31l0,1.59c0,2.37 1.13,10.48 1.75,12.69c0.31,1.09 0.93,2.45 1.36,2.99c1.09,1.36 5.05,2.6 9.36,2.87c3.3,0.23 3.38,0.19 4.04,-0.78c0.5,-0.78 0.74,-2.45 1.01,-6.95c0.19,-3.26 0.54,-8.81 0.74,-12.34c0.82,-11.92 3.49,-24.96 7.88,-37.85l2.76,-8.15l0.16,-5.51l0.16,-5.51l-1.63,-1.16c-0.85,-0.62 -2.48,-1.32 -3.53,-1.55c-4,-0.85 -8.97,-0.19 -12.03,1.59c-5.55,3.26 -10.48,12.97 -11.61,22.87c-0.47,3.96 -0.47,13.9 -0.04,16.23c0.62,3.11 2.41,4.62 6.72,5.78l2.45,0.66l0.12,3.03c0.08,1.67 -0.08,4.27 -0.27,5.78c-0.58,4.27 -1.44,4.77 -6.91,4.04l-0.04,-0.01zm4.93,-34.01c0,-3.07 2.41,-7.73 4.43,-8.54c1.24,-0.5 1.59,-0.47 2.72,0.43c0.78,0.58 1.01,1.13 1.01,2.21c0,1.9 -1.63,7.88 -2.48,9.2c-0.62,0.93 -0.89,1.05 -2.1,0.82c-2.02,-0.31 -3.57,-2.1 -3.57,-4.12l-0.01,0z" stroke-width="0px" fill="#f7ee1d" id="svg_129"/>
   <path class="cls-2" d="m83.29,122.46c0.54,-1.05 0.5,-1.44 -0.23,-2.14c-0.31,-0.35 -0.85,-0.62 -1.13,-0.62c-0.62,0 -1.75,1.05 -1.75,1.59c0,1.75 2.33,2.6 3.11,1.16l0,0.01z" stroke-width="0px" fill="#f7ee1d" id="svg_130"/>
   <path class="cls-3" d="m71.26,190.05c0,3.8 1.71,6.37 4.12,6.06c1.82,-0.19 2.68,-1.86 2.83,-5.59l0.12,-3.26l-1.55,-1.55c-3.11,-3.11 -5.51,-1.2 -5.51,4.35l-0.01,-0.01z" stroke-width="0px" fill="#3b80a6" id="svg_131"/>
   <path class="cls-5" d="m59.38,221.03c-3.42,-3.3 -6.87,-13.59 -9.36,-27.76c-0.54,-3.18 -0.66,-6.33 -0.7,-17.66c0,-13.51 0,-13.82 0.93,-16.46c0.97,-2.87 3.14,-5.67 4.35,-5.67c0.97,0 0.93,-0.31 -0.12,-1.2c-1.16,-0.93 -1.94,-0.93 -2.91,0.12c-1.16,1.28 -1.51,2.1 -2.52,5.75c-0.85,3.14 -0.89,3.92 -0.89,16.11c0,13.94 0.27,16.77 2.56,27.56c2.6,12.46 6.41,21.16 9.24,21.16c1.13,0 1.01,-0.39 -0.58,-1.94l0,-0.01z" stroke-width="0px" fill="#ee3f21" id="svg_132"/>
   <path class="cls-3" d="m84.88,190.05l1.71,-0.31l-3.18,-1.63c-1.79,-0.89 -3.3,-1.63 -3.38,-1.63c-0.12,0 -0.08,1.16 0.04,2.6c0.16,1.9 0,3.14 -0.43,4.39c-0.97,2.8 -0.66,3.11 0.54,0.5c1.24,-2.68 2.21,-3.49 4.7,-3.92z" stroke-width="0px" fill="#3b80a6" id="svg_133"/>
  </g>
 </g>

</svg>